<mxfile host="app.diagrams.net" modified="2023-04-26T14:59:18.034Z" agent="Mozilla/5.0 (X11; Ubuntu; Linux x86_64; rv:109.0) Gecko/20100101 Firefox/112.0" etag="srO0iGV5sI4dHnobJiVD" version="21.2.1" type="device" pages="4">
  <diagram id="fC97jBpM_xTiCUfCGoVt" name="AvalonMM_to_hRAM">
    <mxGraphModel dx="1578" dy="826" grid="1" gridSize="10" guides="1" tooltips="1" connect="1" arrows="1" fold="1" page="1" pageScale="1" pageWidth="850" pageHeight="1100" math="0" shadow="0">
      <root>
        <mxCell id="0" />
        <mxCell id="1" parent="0" />
        <mxCell id="tyazFwi2D3Fx87An2y98-1" value="" style="rounded=0;whiteSpace=wrap;html=1;" parent="1" vertex="1">
          <mxGeometry x="240" y="200" width="320" height="400" as="geometry" />
        </mxCell>
        <mxCell id="tyazFwi2D3Fx87An2y98-3" value="&lt;font style=&quot;font-size: 15px;&quot;&gt;avs_s0_&lt;font style=&quot;font-size: 15px;&quot;&gt;address&lt;/font&gt;&lt;/font&gt;" style="text;html=1;align=left;verticalAlign=middle;resizable=0;points=[];autosize=1;strokeColor=none;fillColor=none;" parent="1" vertex="1">
          <mxGeometry x="245" y="225" width="130" height="30" as="geometry" />
        </mxCell>
        <mxCell id="tyazFwi2D3Fx87An2y98-4" value="&lt;font style=&quot;font-size: 15px;&quot;&gt;avs_s0_&lt;/font&gt;readdata" style="text;html=1;align=left;verticalAlign=middle;resizable=0;points=[];autosize=1;strokeColor=none;fillColor=none;fontSize=15;" parent="1" vertex="1">
          <mxGeometry x="245" y="265" width="140" height="30" as="geometry" />
        </mxCell>
        <mxCell id="tyazFwi2D3Fx87An2y98-7" value="&lt;font style=&quot;font-size: 15px;&quot;&gt;avs_s0_&lt;/font&gt;read" style="text;html=1;align=left;verticalAlign=middle;resizable=0;points=[];autosize=1;strokeColor=none;fillColor=none;fontSize=15;" parent="1" vertex="1">
          <mxGeometry x="245" y="345" width="110" height="30" as="geometry" />
        </mxCell>
        <mxCell id="tyazFwi2D3Fx87An2y98-8" value="&lt;font style=&quot;font-size: 15px;&quot;&gt;avs_s0_w&lt;/font&gt;ritedata" style="text;html=1;align=left;verticalAlign=middle;resizable=0;points=[];autosize=1;strokeColor=none;fillColor=none;fontSize=15;" parent="1" vertex="1">
          <mxGeometry x="245" y="305" width="140" height="30" as="geometry" />
        </mxCell>
        <mxCell id="tyazFwi2D3Fx87An2y98-9" value="&lt;font style=&quot;font-size: 15px;&quot;&gt;avs_s0_&lt;font style=&quot;font-size: 15px;&quot;&gt;&lt;/font&gt;&lt;/font&gt;write" style="text;html=1;align=left;verticalAlign=middle;resizable=0;points=[];autosize=1;strokeColor=none;fillColor=none;fontSize=15;" parent="1" vertex="1">
          <mxGeometry x="245" y="385" width="110" height="30" as="geometry" />
        </mxCell>
        <mxCell id="tyazFwi2D3Fx87An2y98-10" value="&lt;font style=&quot;font-size: 15px;&quot;&gt;avs_s0_&lt;font style=&quot;font-size: 15px;&quot;&gt;&lt;/font&gt;&lt;/font&gt;waitrequest" style="text;html=1;align=left;verticalAlign=middle;resizable=0;points=[];autosize=1;strokeColor=none;fillColor=none;fontSize=15;" parent="1" vertex="1">
          <mxGeometry x="245" y="425" width="160" height="30" as="geometry" />
        </mxCell>
        <mxCell id="tyazFwi2D3Fx87An2y98-11" value="clock_clk" style="text;html=1;align=left;verticalAlign=middle;resizable=0;points=[];autosize=1;strokeColor=none;fillColor=none;fontSize=15;" parent="1" vertex="1">
          <mxGeometry x="245" y="505" width="80" height="30" as="geometry" />
        </mxCell>
        <mxCell id="tyazFwi2D3Fx87An2y98-13" value="hbus_d" style="text;html=1;align=right;verticalAlign=middle;resizable=0;points=[];autosize=1;strokeColor=none;fillColor=none;fontSize=15;" parent="1" vertex="1">
          <mxGeometry x="495" y="310" width="60" height="20" as="geometry" />
        </mxCell>
        <mxCell id="tyazFwi2D3Fx87An2y98-14" value="hbus_cs" style="text;html=1;align=right;verticalAlign=middle;resizable=0;points=[];autosize=1;strokeColor=none;fillColor=none;fontSize=15;" parent="1" vertex="1">
          <mxGeometry x="485" y="390" width="70" height="20" as="geometry" />
        </mxCell>
        <mxCell id="tyazFwi2D3Fx87An2y98-15" value="hbus_ck" style="text;html=1;align=right;verticalAlign=middle;resizable=0;points=[];autosize=1;strokeColor=none;fillColor=none;fontSize=15;" parent="1" vertex="1">
          <mxGeometry x="485" y="470" width="70" height="20" as="geometry" />
        </mxCell>
        <mxCell id="tyazFwi2D3Fx87An2y98-16" value="&lt;div&gt;hbus_rst&lt;/div&gt;" style="text;html=1;align=right;verticalAlign=middle;resizable=0;points=[];autosize=1;strokeColor=none;fillColor=none;fontSize=15;" parent="1" vertex="1">
          <mxGeometry x="485" y="430" width="70" height="20" as="geometry" />
        </mxCell>
        <mxCell id="tyazFwi2D3Fx87An2y98-17" value="&lt;div&gt;hbus_rwds&lt;/div&gt;" style="text;html=1;align=right;verticalAlign=middle;resizable=0;points=[];autosize=1;strokeColor=none;fillColor=none;fontSize=15;" parent="1" vertex="1">
          <mxGeometry x="465" y="350" width="90" height="20" as="geometry" />
        </mxCell>
        <mxCell id="tyazFwi2D3Fx87An2y98-18" value="AvalonMM_to_hRAM" style="rounded=0;whiteSpace=wrap;html=1;fontSize=15;" parent="1" vertex="1">
          <mxGeometry x="240" y="160" width="320" height="40" as="geometry" />
        </mxCell>
        <mxCell id="tyazFwi2D3Fx87An2y98-27" value="" style="endArrow=classic;html=1;rounded=0;fontSize=15;" parent="1" edge="1">
          <mxGeometry width="50" height="50" relative="1" as="geometry">
            <mxPoint x="560" y="480" as="sourcePoint" />
            <mxPoint x="620" y="480" as="targetPoint" />
          </mxGeometry>
        </mxCell>
        <mxCell id="tyazFwi2D3Fx87An2y98-29" value="1" style="text;html=1;align=center;verticalAlign=middle;resizable=0;points=[];autosize=1;strokeColor=none;fillColor=none;fontSize=15;" parent="1" vertex="1">
          <mxGeometry x="580" y="460" width="20" height="20" as="geometry" />
        </mxCell>
        <mxCell id="tyazFwi2D3Fx87An2y98-30" value="" style="endArrow=classic;html=1;rounded=0;fontSize=15;" parent="1" edge="1">
          <mxGeometry width="50" height="50" relative="1" as="geometry">
            <mxPoint x="560" y="439.9999999999999" as="sourcePoint" />
            <mxPoint x="620" y="439.9999999999999" as="targetPoint" />
          </mxGeometry>
        </mxCell>
        <mxCell id="tyazFwi2D3Fx87An2y98-31" value="1" style="text;html=1;align=center;verticalAlign=middle;resizable=0;points=[];autosize=1;strokeColor=none;fillColor=none;fontSize=15;" parent="1" vertex="1">
          <mxGeometry x="580" y="420" width="20" height="20" as="geometry" />
        </mxCell>
        <mxCell id="tyazFwi2D3Fx87An2y98-32" value="" style="endArrow=classic;html=1;rounded=0;fontSize=15;" parent="1" edge="1">
          <mxGeometry width="50" height="50" relative="1" as="geometry">
            <mxPoint x="560" y="399.9999999999999" as="sourcePoint" />
            <mxPoint x="620" y="399.9999999999999" as="targetPoint" />
          </mxGeometry>
        </mxCell>
        <mxCell id="tyazFwi2D3Fx87An2y98-33" value="1" style="text;html=1;align=center;verticalAlign=middle;resizable=0;points=[];autosize=1;strokeColor=none;fillColor=none;fontSize=15;" parent="1" vertex="1">
          <mxGeometry x="580" y="380" width="20" height="20" as="geometry" />
        </mxCell>
        <mxCell id="tyazFwi2D3Fx87An2y98-34" value="" style="endArrow=classic;html=1;rounded=0;fontSize=15;startArrow=classic;startFill=1;" parent="1" edge="1">
          <mxGeometry width="50" height="50" relative="1" as="geometry">
            <mxPoint x="560" y="359.9999999999999" as="sourcePoint" />
            <mxPoint x="620" y="359.9999999999999" as="targetPoint" />
          </mxGeometry>
        </mxCell>
        <mxCell id="tyazFwi2D3Fx87An2y98-35" value="1" style="text;html=1;align=center;verticalAlign=middle;resizable=0;points=[];autosize=1;strokeColor=none;fillColor=none;fontSize=15;" parent="1" vertex="1">
          <mxGeometry x="580" y="340" width="20" height="20" as="geometry" />
        </mxCell>
        <mxCell id="tyazFwi2D3Fx87An2y98-48" value="" style="endArrow=classic;html=1;rounded=0;fontSize=15;startArrow=classic;startFill=1;" parent="1" edge="1">
          <mxGeometry width="50" height="50" relative="1" as="geometry">
            <mxPoint x="560" y="319.9999999999999" as="sourcePoint" />
            <mxPoint x="620" y="319.9999999999999" as="targetPoint" />
          </mxGeometry>
        </mxCell>
        <mxCell id="tyazFwi2D3Fx87An2y98-49" value="8" style="text;html=1;align=center;verticalAlign=middle;resizable=0;points=[];autosize=1;strokeColor=none;fillColor=none;fontSize=15;" parent="1" vertex="1">
          <mxGeometry x="580" y="300" width="20" height="20" as="geometry" />
        </mxCell>
        <mxCell id="KE8zLy7gZJcdXnEcFr7T-1" value="reset_reset" style="text;html=1;align=left;verticalAlign=middle;resizable=0;points=[];autosize=1;strokeColor=none;fillColor=none;fontSize=15;" parent="1" vertex="1">
          <mxGeometry x="245" y="545" width="100" height="30" as="geometry" />
        </mxCell>
        <mxCell id="DO_7Ebz1yjU0auNpX0zB-1" value="&lt;font style=&quot;font-size: 15px;&quot;&gt;avs_s0_&lt;font style=&quot;font-size: 15px;&quot;&gt;&lt;/font&gt;&lt;/font&gt;readdatavalid" style="text;html=1;align=left;verticalAlign=middle;resizable=0;points=[];autosize=1;strokeColor=none;fillColor=none;fontSize=15;" parent="1" vertex="1">
          <mxGeometry x="245" y="465.69" width="170" height="30" as="geometry" />
        </mxCell>
        <mxCell id="eFn4LZjZn5dVZkU498TQ-1" value="" style="endArrow=classic;html=1;rounded=0;fontSize=15;" parent="1" edge="1">
          <mxGeometry width="50" height="50" relative="1" as="geometry">
            <mxPoint x="180" y="520" as="sourcePoint" />
            <mxPoint x="240" y="520" as="targetPoint" />
          </mxGeometry>
        </mxCell>
        <mxCell id="eFn4LZjZn5dVZkU498TQ-2" value="1" style="text;html=1;align=center;verticalAlign=middle;resizable=0;points=[];autosize=1;strokeColor=none;fillColor=none;fontSize=15;" parent="1" vertex="1">
          <mxGeometry x="200" y="500" width="20" height="20" as="geometry" />
        </mxCell>
        <mxCell id="eFn4LZjZn5dVZkU498TQ-3" value="" style="endArrow=classic;html=1;rounded=0;fontSize=15;" parent="1" edge="1">
          <mxGeometry width="50" height="50" relative="1" as="geometry">
            <mxPoint x="240" y="440" as="sourcePoint" />
            <mxPoint x="180" y="440" as="targetPoint" />
          </mxGeometry>
        </mxCell>
        <mxCell id="eFn4LZjZn5dVZkU498TQ-4" value="1" style="text;html=1;align=center;verticalAlign=middle;resizable=0;points=[];autosize=1;strokeColor=none;fillColor=none;fontSize=15;" parent="1" vertex="1">
          <mxGeometry x="200" y="419.31" width="20" height="20" as="geometry" />
        </mxCell>
        <mxCell id="eFn4LZjZn5dVZkU498TQ-5" value="" style="endArrow=classic;html=1;rounded=0;fontSize=15;" parent="1" edge="1">
          <mxGeometry width="50" height="50" relative="1" as="geometry">
            <mxPoint x="180" y="400" as="sourcePoint" />
            <mxPoint x="240" y="400" as="targetPoint" />
          </mxGeometry>
        </mxCell>
        <mxCell id="eFn4LZjZn5dVZkU498TQ-6" value="1" style="text;html=1;align=center;verticalAlign=middle;resizable=0;points=[];autosize=1;strokeColor=none;fillColor=none;fontSize=15;" parent="1" vertex="1">
          <mxGeometry x="200" y="379.31" width="20" height="20" as="geometry" />
        </mxCell>
        <mxCell id="eFn4LZjZn5dVZkU498TQ-7" value="" style="endArrow=classic;html=1;rounded=0;fontSize=15;" parent="1" edge="1">
          <mxGeometry width="50" height="50" relative="1" as="geometry">
            <mxPoint x="180" y="360" as="sourcePoint" />
            <mxPoint x="240" y="360" as="targetPoint" />
          </mxGeometry>
        </mxCell>
        <mxCell id="eFn4LZjZn5dVZkU498TQ-8" value="1" style="text;html=1;align=center;verticalAlign=middle;resizable=0;points=[];autosize=1;strokeColor=none;fillColor=none;fontSize=15;" parent="1" vertex="1">
          <mxGeometry x="200" y="339.31" width="20" height="20" as="geometry" />
        </mxCell>
        <mxCell id="eFn4LZjZn5dVZkU498TQ-9" value="" style="endArrow=classic;html=1;rounded=0;fontSize=15;" parent="1" edge="1">
          <mxGeometry width="50" height="50" relative="1" as="geometry">
            <mxPoint x="180" y="320" as="sourcePoint" />
            <mxPoint x="240" y="320" as="targetPoint" />
          </mxGeometry>
        </mxCell>
        <mxCell id="eFn4LZjZn5dVZkU498TQ-10" value="" style="endArrow=classic;html=1;rounded=0;fontSize=15;" parent="1" edge="1">
          <mxGeometry width="50" height="50" relative="1" as="geometry">
            <mxPoint x="240" y="280" as="sourcePoint" />
            <mxPoint x="180" y="280" as="targetPoint" />
          </mxGeometry>
        </mxCell>
        <mxCell id="eFn4LZjZn5dVZkU498TQ-11" value="" style="endArrow=classic;html=1;rounded=0;fontSize=15;" parent="1" edge="1">
          <mxGeometry width="50" height="50" relative="1" as="geometry">
            <mxPoint x="180" y="240" as="sourcePoint" />
            <mxPoint x="240" y="240" as="targetPoint" />
          </mxGeometry>
        </mxCell>
        <mxCell id="eFn4LZjZn5dVZkU498TQ-12" value="32" style="text;html=1;align=center;verticalAlign=middle;resizable=0;points=[];autosize=1;strokeColor=none;fillColor=none;fontSize=15;" parent="1" vertex="1">
          <mxGeometry x="195" y="220" width="30" height="20" as="geometry" />
        </mxCell>
        <mxCell id="eFn4LZjZn5dVZkU498TQ-13" value="16" style="text;html=1;align=center;verticalAlign=middle;resizable=0;points=[];autosize=1;strokeColor=none;fillColor=none;fontSize=15;" parent="1" vertex="1">
          <mxGeometry x="195" y="260" width="30" height="20" as="geometry" />
        </mxCell>
        <mxCell id="eFn4LZjZn5dVZkU498TQ-14" value="16" style="text;html=1;align=center;verticalAlign=middle;resizable=0;points=[];autosize=1;strokeColor=none;fillColor=none;fontSize=15;" parent="1" vertex="1">
          <mxGeometry x="195" y="300" width="30" height="20" as="geometry" />
        </mxCell>
        <mxCell id="eFn4LZjZn5dVZkU498TQ-15" value="" style="endArrow=classic;html=1;rounded=0;fontSize=15;" parent="1" edge="1">
          <mxGeometry width="50" height="50" relative="1" as="geometry">
            <mxPoint x="180" y="560" as="sourcePoint" />
            <mxPoint x="240" y="560" as="targetPoint" />
          </mxGeometry>
        </mxCell>
        <mxCell id="eFn4LZjZn5dVZkU498TQ-16" value="1" style="text;html=1;align=center;verticalAlign=middle;resizable=0;points=[];autosize=1;strokeColor=none;fillColor=none;fontSize=15;" parent="1" vertex="1">
          <mxGeometry x="200" y="540" width="20" height="20" as="geometry" />
        </mxCell>
        <mxCell id="eFn4LZjZn5dVZkU498TQ-17" value="" style="endArrow=classic;html=1;rounded=0;fontSize=15;" parent="1" edge="1">
          <mxGeometry width="50" height="50" relative="1" as="geometry">
            <mxPoint x="240" y="480" as="sourcePoint" />
            <mxPoint x="180" y="480" as="targetPoint" />
          </mxGeometry>
        </mxCell>
        <mxCell id="eFn4LZjZn5dVZkU498TQ-18" value="1" style="text;html=1;align=center;verticalAlign=middle;resizable=0;points=[];autosize=1;strokeColor=none;fillColor=none;fontSize=15;" parent="1" vertex="1">
          <mxGeometry x="202.5" y="460" width="20" height="20" as="geometry" />
        </mxCell>
      </root>
    </mxGraphModel>
  </diagram>
  <diagram id="aNipMCgoFr5Zwash_G46" name="AvalonMM_to_SSRAM">
    <mxGraphModel dx="1578" dy="876" grid="1" gridSize="10" guides="1" tooltips="1" connect="1" arrows="1" fold="1" page="1" pageScale="1" pageWidth="850" pageHeight="1100" math="0" shadow="0">
      <root>
        <mxCell id="0" />
        <mxCell id="1" parent="0" />
        <mxCell id="7uRNbXWkZxl7LxoGMfkp-1" value="" style="rounded=0;whiteSpace=wrap;html=1;" parent="1" vertex="1">
          <mxGeometry x="240" y="200" width="320" height="400" as="geometry" />
        </mxCell>
        <mxCell id="7uRNbXWkZxl7LxoGMfkp-2" value="&lt;font style=&quot;font-size: 15px;&quot;&gt;avs_s0_&lt;font style=&quot;font-size: 15px;&quot;&gt;address&lt;/font&gt;&lt;/font&gt;" style="text;html=1;align=left;verticalAlign=middle;resizable=0;points=[];autosize=1;strokeColor=none;fillColor=none;" parent="1" vertex="1">
          <mxGeometry x="245" y="225" width="130" height="30" as="geometry" />
        </mxCell>
        <mxCell id="7uRNbXWkZxl7LxoGMfkp-3" value="&lt;font style=&quot;font-size: 15px;&quot;&gt;avs_s0_&lt;/font&gt;readdata" style="text;html=1;align=left;verticalAlign=middle;resizable=0;points=[];autosize=1;strokeColor=none;fillColor=none;fontSize=15;" parent="1" vertex="1">
          <mxGeometry x="245" y="265" width="140" height="30" as="geometry" />
        </mxCell>
        <mxCell id="7uRNbXWkZxl7LxoGMfkp-4" value="&lt;font style=&quot;font-size: 15px;&quot;&gt;avs_s0_&lt;/font&gt;read" style="text;html=1;align=left;verticalAlign=middle;resizable=0;points=[];autosize=1;strokeColor=none;fillColor=none;fontSize=15;" parent="1" vertex="1">
          <mxGeometry x="245" y="345" width="110" height="30" as="geometry" />
        </mxCell>
        <mxCell id="7uRNbXWkZxl7LxoGMfkp-5" value="&lt;font style=&quot;font-size: 15px;&quot;&gt;avs_s0_w&lt;/font&gt;ritedata" style="text;html=1;align=left;verticalAlign=middle;resizable=0;points=[];autosize=1;strokeColor=none;fillColor=none;fontSize=15;" parent="1" vertex="1">
          <mxGeometry x="245" y="305" width="140" height="30" as="geometry" />
        </mxCell>
        <mxCell id="7uRNbXWkZxl7LxoGMfkp-6" value="&lt;font style=&quot;font-size: 15px;&quot;&gt;avs_s0_&lt;font style=&quot;font-size: 15px;&quot;&gt;&lt;/font&gt;&lt;/font&gt;write" style="text;html=1;align=left;verticalAlign=middle;resizable=0;points=[];autosize=1;strokeColor=none;fillColor=none;fontSize=15;" parent="1" vertex="1">
          <mxGeometry x="245" y="385" width="110" height="30" as="geometry" />
        </mxCell>
        <mxCell id="7uRNbXWkZxl7LxoGMfkp-7" value="&lt;font style=&quot;font-size: 15px;&quot;&gt;avs_s0_&lt;font style=&quot;font-size: 15px;&quot;&gt;&lt;/font&gt;&lt;/font&gt;waitrequest" style="text;html=1;align=left;verticalAlign=middle;resizable=0;points=[];autosize=1;strokeColor=none;fillColor=none;fontSize=15;" parent="1" vertex="1">
          <mxGeometry x="245" y="425" width="160" height="30" as="geometry" />
        </mxCell>
        <mxCell id="7uRNbXWkZxl7LxoGMfkp-8" value="clock_clk" style="text;html=1;align=left;verticalAlign=middle;resizable=0;points=[];autosize=1;strokeColor=none;fillColor=none;fontSize=15;" parent="1" vertex="1">
          <mxGeometry x="245" y="505" width="80" height="30" as="geometry" />
        </mxCell>
        <mxCell id="7uRNbXWkZxl7LxoGMfkp-14" value="AvalonMM_to_SSRAM" style="rounded=0;whiteSpace=wrap;html=1;fontSize=15;" parent="1" vertex="1">
          <mxGeometry x="240" y="160" width="320" height="40" as="geometry" />
        </mxCell>
        <mxCell id="7uRNbXWkZxl7LxoGMfkp-15" value="" style="endArrow=classic;html=1;rounded=0;fontSize=15;" parent="1" edge="1">
          <mxGeometry width="50" height="50" relative="1" as="geometry">
            <mxPoint x="560" y="360" as="sourcePoint" />
            <mxPoint x="620" y="360" as="targetPoint" />
          </mxGeometry>
        </mxCell>
        <mxCell id="7uRNbXWkZxl7LxoGMfkp-16" value="1" style="text;html=1;align=center;verticalAlign=middle;resizable=0;points=[];autosize=1;strokeColor=none;fillColor=none;fontSize=15;" parent="1" vertex="1">
          <mxGeometry x="580" y="379.31" width="20" height="20" as="geometry" />
        </mxCell>
        <mxCell id="7uRNbXWkZxl7LxoGMfkp-17" value="" style="endArrow=classic;html=1;rounded=0;fontSize=15;" parent="1" edge="1">
          <mxGeometry width="50" height="50" relative="1" as="geometry">
            <mxPoint x="560" y="319.9999999999999" as="sourcePoint" />
            <mxPoint x="620" y="319.9999999999999" as="targetPoint" />
          </mxGeometry>
        </mxCell>
        <mxCell id="7uRNbXWkZxl7LxoGMfkp-18" value="1" style="text;html=1;align=center;verticalAlign=middle;resizable=0;points=[];autosize=1;strokeColor=none;fillColor=none;fontSize=15;" parent="1" vertex="1">
          <mxGeometry x="580" y="339.31" width="20" height="20" as="geometry" />
        </mxCell>
        <mxCell id="7uRNbXWkZxl7LxoGMfkp-19" value="" style="endArrow=classic;html=1;rounded=0;fontSize=15;" parent="1" edge="1">
          <mxGeometry width="50" height="50" relative="1" as="geometry">
            <mxPoint x="560" y="400" as="sourcePoint" />
            <mxPoint x="620" y="400" as="targetPoint" />
          </mxGeometry>
        </mxCell>
        <mxCell id="7uRNbXWkZxl7LxoGMfkp-20" value="1" style="text;html=1;align=center;verticalAlign=middle;resizable=0;points=[];autosize=1;strokeColor=none;fillColor=none;fontSize=15;" parent="1" vertex="1">
          <mxGeometry x="580" y="220" width="20" height="20" as="geometry" />
        </mxCell>
        <mxCell id="7uRNbXWkZxl7LxoGMfkp-23" value="" style="endArrow=classic;html=1;rounded=0;fontSize=15;" parent="1" edge="1">
          <mxGeometry width="50" height="50" relative="1" as="geometry">
            <mxPoint x="180" y="520" as="sourcePoint" />
            <mxPoint x="240" y="520" as="targetPoint" />
          </mxGeometry>
        </mxCell>
        <mxCell id="7uRNbXWkZxl7LxoGMfkp-24" value="1" style="text;html=1;align=center;verticalAlign=middle;resizable=0;points=[];autosize=1;strokeColor=none;fillColor=none;fontSize=15;" parent="1" vertex="1">
          <mxGeometry x="200" y="500" width="20" height="20" as="geometry" />
        </mxCell>
        <mxCell id="7uRNbXWkZxl7LxoGMfkp-25" value="" style="endArrow=classic;html=1;rounded=0;fontSize=15;" parent="1" edge="1">
          <mxGeometry width="50" height="50" relative="1" as="geometry">
            <mxPoint x="240" y="440" as="sourcePoint" />
            <mxPoint x="180" y="440" as="targetPoint" />
          </mxGeometry>
        </mxCell>
        <mxCell id="7uRNbXWkZxl7LxoGMfkp-26" value="1" style="text;html=1;align=center;verticalAlign=middle;resizable=0;points=[];autosize=1;strokeColor=none;fillColor=none;fontSize=15;" parent="1" vertex="1">
          <mxGeometry x="200" y="419.31" width="20" height="20" as="geometry" />
        </mxCell>
        <mxCell id="7uRNbXWkZxl7LxoGMfkp-27" value="" style="endArrow=classic;html=1;rounded=0;fontSize=15;" parent="1" edge="1">
          <mxGeometry width="50" height="50" relative="1" as="geometry">
            <mxPoint x="180" y="400" as="sourcePoint" />
            <mxPoint x="240" y="400" as="targetPoint" />
          </mxGeometry>
        </mxCell>
        <mxCell id="7uRNbXWkZxl7LxoGMfkp-28" value="1" style="text;html=1;align=center;verticalAlign=middle;resizable=0;points=[];autosize=1;strokeColor=none;fillColor=none;fontSize=15;" parent="1" vertex="1">
          <mxGeometry x="200" y="379.31" width="20" height="20" as="geometry" />
        </mxCell>
        <mxCell id="7uRNbXWkZxl7LxoGMfkp-29" value="" style="endArrow=classic;html=1;rounded=0;fontSize=15;" parent="1" edge="1">
          <mxGeometry width="50" height="50" relative="1" as="geometry">
            <mxPoint x="180" y="360" as="sourcePoint" />
            <mxPoint x="240" y="360" as="targetPoint" />
          </mxGeometry>
        </mxCell>
        <mxCell id="7uRNbXWkZxl7LxoGMfkp-30" value="1" style="text;html=1;align=center;verticalAlign=middle;resizable=0;points=[];autosize=1;strokeColor=none;fillColor=none;fontSize=15;" parent="1" vertex="1">
          <mxGeometry x="200" y="339.31" width="20" height="20" as="geometry" />
        </mxCell>
        <mxCell id="7uRNbXWkZxl7LxoGMfkp-31" value="" style="endArrow=classic;html=1;rounded=0;fontSize=15;" parent="1" edge="1">
          <mxGeometry width="50" height="50" relative="1" as="geometry">
            <mxPoint x="180" y="320" as="sourcePoint" />
            <mxPoint x="240" y="320" as="targetPoint" />
          </mxGeometry>
        </mxCell>
        <mxCell id="7uRNbXWkZxl7LxoGMfkp-32" value="" style="endArrow=none;html=1;rounded=0;fontSize=15;startArrow=classic;startFill=1;endFill=0;" parent="1" edge="1">
          <mxGeometry width="50" height="50" relative="1" as="geometry">
            <mxPoint x="560" y="520" as="sourcePoint" />
            <mxPoint x="620" y="520" as="targetPoint" />
          </mxGeometry>
        </mxCell>
        <mxCell id="7uRNbXWkZxl7LxoGMfkp-33" value="32" style="text;html=1;align=center;verticalAlign=middle;resizable=0;points=[];autosize=1;strokeColor=none;fillColor=none;fontSize=15;" parent="1" vertex="1">
          <mxGeometry x="570" y="255" width="40" height="30" as="geometry" />
        </mxCell>
        <mxCell id="7uRNbXWkZxl7LxoGMfkp-34" value="" style="endArrow=classic;html=1;rounded=0;fontSize=15;" parent="1" edge="1">
          <mxGeometry width="50" height="50" relative="1" as="geometry">
            <mxPoint x="240" y="280" as="sourcePoint" />
            <mxPoint x="180" y="280" as="targetPoint" />
          </mxGeometry>
        </mxCell>
        <mxCell id="7uRNbXWkZxl7LxoGMfkp-35" value="" style="endArrow=classic;html=1;rounded=0;fontSize=15;" parent="1" edge="1">
          <mxGeometry width="50" height="50" relative="1" as="geometry">
            <mxPoint x="180" y="240" as="sourcePoint" />
            <mxPoint x="240" y="240" as="targetPoint" />
          </mxGeometry>
        </mxCell>
        <mxCell id="7uRNbXWkZxl7LxoGMfkp-36" value="32" style="text;html=1;align=center;verticalAlign=middle;resizable=0;points=[];autosize=1;strokeColor=none;fillColor=none;fontSize=15;" parent="1" vertex="1">
          <mxGeometry x="195" y="220" width="30" height="20" as="geometry" />
        </mxCell>
        <mxCell id="7uRNbXWkZxl7LxoGMfkp-37" value="16" style="text;html=1;align=center;verticalAlign=middle;resizable=0;points=[];autosize=1;strokeColor=none;fillColor=none;fontSize=15;" parent="1" vertex="1">
          <mxGeometry x="195" y="260" width="30" height="20" as="geometry" />
        </mxCell>
        <mxCell id="7uRNbXWkZxl7LxoGMfkp-38" value="16" style="text;html=1;align=center;verticalAlign=middle;resizable=0;points=[];autosize=1;strokeColor=none;fillColor=none;fontSize=15;" parent="1" vertex="1">
          <mxGeometry x="195" y="300" width="30" height="20" as="geometry" />
        </mxCell>
        <mxCell id="7uRNbXWkZxl7LxoGMfkp-39" value="reset_reset" style="text;html=1;align=left;verticalAlign=middle;resizable=0;points=[];autosize=1;strokeColor=none;fillColor=none;fontSize=15;" parent="1" vertex="1">
          <mxGeometry x="245" y="545" width="100" height="30" as="geometry" />
        </mxCell>
        <mxCell id="7uRNbXWkZxl7LxoGMfkp-40" value="" style="endArrow=classic;html=1;rounded=0;fontSize=15;" parent="1" edge="1">
          <mxGeometry width="50" height="50" relative="1" as="geometry">
            <mxPoint x="180" y="560" as="sourcePoint" />
            <mxPoint x="240" y="560" as="targetPoint" />
          </mxGeometry>
        </mxCell>
        <mxCell id="7uRNbXWkZxl7LxoGMfkp-41" value="1" style="text;html=1;align=center;verticalAlign=middle;resizable=0;points=[];autosize=1;strokeColor=none;fillColor=none;fontSize=15;" parent="1" vertex="1">
          <mxGeometry x="200" y="540" width="20" height="20" as="geometry" />
        </mxCell>
        <mxCell id="7uRNbXWkZxl7LxoGMfkp-42" value="&lt;font style=&quot;font-size: 15px;&quot;&gt;avs_s0_&lt;font style=&quot;font-size: 15px;&quot;&gt;&lt;/font&gt;&lt;/font&gt;readdatavalid" style="text;html=1;align=left;verticalAlign=middle;resizable=0;points=[];autosize=1;strokeColor=none;fillColor=none;fontSize=15;" parent="1" vertex="1">
          <mxGeometry x="245" y="465.69" width="170" height="30" as="geometry" />
        </mxCell>
        <mxCell id="7uRNbXWkZxl7LxoGMfkp-43" value="" style="endArrow=classic;html=1;rounded=0;fontSize=15;" parent="1" edge="1">
          <mxGeometry width="50" height="50" relative="1" as="geometry">
            <mxPoint x="240" y="480" as="sourcePoint" />
            <mxPoint x="180" y="480" as="targetPoint" />
          </mxGeometry>
        </mxCell>
        <mxCell id="7uRNbXWkZxl7LxoGMfkp-44" value="1" style="text;html=1;align=center;verticalAlign=middle;resizable=0;points=[];autosize=1;strokeColor=none;fillColor=none;fontSize=15;" parent="1" vertex="1">
          <mxGeometry x="202.5" y="460" width="20" height="20" as="geometry" />
        </mxCell>
        <mxCell id="O9NMfc2VU4IbGUOjIKSB-1" value="&lt;font style=&quot;font-size: 15px;&quot;&gt;ssram_&lt;/font&gt;&lt;font style=&quot;font-size: 15px;&quot;&gt;&lt;font style=&quot;font-size: 15px;&quot;&gt;address&lt;/font&gt;&lt;/font&gt;" style="text;html=1;align=right;verticalAlign=middle;resizable=0;points=[];autosize=1;strokeColor=none;fillColor=none;" parent="1" vertex="1">
          <mxGeometry x="425" y="265" width="130" height="30" as="geometry" />
        </mxCell>
        <mxCell id="O9NMfc2VU4IbGUOjIKSB-2" value="&lt;font style=&quot;font-size: 15px;&quot;&gt;ssram_&lt;/font&gt;&lt;font style=&quot;font-size: 15px;&quot;&gt;out&lt;/font&gt;" style="text;html=1;align=right;verticalAlign=middle;resizable=0;points=[];autosize=1;strokeColor=none;fillColor=none;" parent="1" vertex="1">
          <mxGeometry x="465" y="425" width="90" height="30" as="geometry" />
        </mxCell>
        <mxCell id="O9NMfc2VU4IbGUOjIKSB-3" value="&lt;font style=&quot;font-size: 15px;&quot;&gt;ssram_i&lt;/font&gt;&lt;font style=&quot;font-size: 15px;&quot;&gt;n&lt;/font&gt;" style="text;html=1;align=right;verticalAlign=middle;resizable=0;points=[];autosize=1;strokeColor=none;fillColor=none;" parent="1" vertex="1">
          <mxGeometry x="475" y="305" width="80" height="30" as="geometry" />
        </mxCell>
        <mxCell id="O9NMfc2VU4IbGUOjIKSB-4" value="&lt;font style=&quot;font-size: 15px;&quot;&gt;ssram_&lt;/font&gt;&lt;font style=&quot;font-size: 15px;&quot;&gt;&lt;font style=&quot;font-size: 15px;&quot;&gt;validout&lt;/font&gt;&lt;/font&gt;" style="text;html=1;align=right;verticalAlign=middle;resizable=0;points=[];autosize=1;strokeColor=none;fillColor=none;" parent="1" vertex="1">
          <mxGeometry x="435" y="465" width="120" height="30" as="geometry" />
        </mxCell>
        <mxCell id="O9NMfc2VU4IbGUOjIKSB-5" value="&lt;font style=&quot;font-size: 15px;&quot;&gt;ssram_&lt;/font&gt;&lt;font style=&quot;font-size: 15px;&quot;&gt;WE&lt;/font&gt;" style="text;html=1;align=right;verticalAlign=middle;resizable=0;points=[];autosize=1;strokeColor=none;fillColor=none;rotation=0;" parent="1" vertex="1">
          <mxGeometry x="455" y="385" width="100" height="30" as="geometry" />
        </mxCell>
        <mxCell id="O9NMfc2VU4IbGUOjIKSB-6" value="&lt;font style=&quot;font-size: 15px;&quot;&gt;ssram_&lt;/font&gt;&lt;font style=&quot;font-size: 15px;&quot;&gt;OE&lt;/font&gt;" style="text;html=1;align=right;verticalAlign=middle;resizable=0;points=[];autosize=1;strokeColor=none;fillColor=none;rotation=0;" parent="1" vertex="1">
          <mxGeometry x="465" y="345" width="90" height="30" as="geometry" />
        </mxCell>
        <mxCell id="O9NMfc2VU4IbGUOjIKSB-7" value="&lt;font style=&quot;font-size: 15px;&quot;&gt;ssram_&lt;/font&gt;&lt;font style=&quot;font-size: 15px;&quot;&gt;busy&lt;/font&gt;" style="text;html=1;align=right;verticalAlign=middle;resizable=0;points=[];autosize=1;strokeColor=none;fillColor=none;" parent="1" vertex="1">
          <mxGeometry x="455" y="505" width="100" height="30" as="geometry" />
        </mxCell>
        <mxCell id="O9NMfc2VU4IbGUOjIKSB-8" value="&lt;font style=&quot;font-size: 15px;&quot;&gt;ssram_&lt;/font&gt;&lt;font style=&quot;font-size: 15px;&quot;&gt;&lt;font style=&quot;font-size: 15px;&quot;&gt;CS&lt;/font&gt;&lt;/font&gt;" style="text;html=1;align=right;verticalAlign=middle;resizable=0;points=[];autosize=1;strokeColor=none;fillColor=none;" parent="1" vertex="1">
          <mxGeometry x="465" y="224.31" width="90" height="30" as="geometry" />
        </mxCell>
        <mxCell id="O9NMfc2VU4IbGUOjIKSB-9" value="" style="endArrow=none;html=1;rounded=0;fontSize=15;startArrow=classic;startFill=1;endFill=0;" parent="1" edge="1">
          <mxGeometry width="50" height="50" relative="1" as="geometry">
            <mxPoint x="560" y="480" as="sourcePoint" />
            <mxPoint x="620" y="480" as="targetPoint" />
          </mxGeometry>
        </mxCell>
        <mxCell id="O9NMfc2VU4IbGUOjIKSB-10" value="" style="endArrow=none;html=1;rounded=0;fontSize=15;startArrow=classic;startFill=1;endFill=0;" parent="1" edge="1">
          <mxGeometry width="50" height="50" relative="1" as="geometry">
            <mxPoint x="560" y="440" as="sourcePoint" />
            <mxPoint x="620" y="440" as="targetPoint" />
          </mxGeometry>
        </mxCell>
        <mxCell id="bcyavMN69FrFH7wbn9DO-2" value="" style="endArrow=classic;html=1;rounded=0;fontSize=15;" parent="1" edge="1">
          <mxGeometry width="50" height="50" relative="1" as="geometry">
            <mxPoint x="560" y="280" as="sourcePoint" />
            <mxPoint x="620" y="280" as="targetPoint" />
          </mxGeometry>
        </mxCell>
        <mxCell id="bcyavMN69FrFH7wbn9DO-3" value="" style="endArrow=classic;html=1;rounded=0;fontSize=15;" parent="1" edge="1">
          <mxGeometry width="50" height="50" relative="1" as="geometry">
            <mxPoint x="560" y="239.9999999999999" as="sourcePoint" />
            <mxPoint x="620" y="239.9999999999999" as="targetPoint" />
          </mxGeometry>
        </mxCell>
        <mxCell id="RlWbitO6EM8BJqmgNqRc-1" value="1" style="text;html=1;align=center;verticalAlign=middle;resizable=0;points=[];autosize=1;strokeColor=none;fillColor=none;fontSize=15;" parent="1" vertex="1">
          <mxGeometry x="580" y="500" width="20" height="20" as="geometry" />
        </mxCell>
        <mxCell id="RlWbitO6EM8BJqmgNqRc-2" value="1" style="text;html=1;align=center;verticalAlign=middle;resizable=0;points=[];autosize=1;strokeColor=none;fillColor=none;fontSize=15;" parent="1" vertex="1">
          <mxGeometry x="580" y="460" width="20" height="20" as="geometry" />
        </mxCell>
        <mxCell id="RlWbitO6EM8BJqmgNqRc-3" value="16" style="text;html=1;align=center;verticalAlign=middle;resizable=0;points=[];autosize=1;strokeColor=none;fillColor=none;fontSize=15;" parent="1" vertex="1">
          <mxGeometry x="575" y="300" width="30" height="20" as="geometry" />
        </mxCell>
        <mxCell id="RlWbitO6EM8BJqmgNqRc-4" value="16" style="text;html=1;align=center;verticalAlign=middle;resizable=0;points=[];autosize=1;strokeColor=none;fillColor=none;fontSize=15;" parent="1" vertex="1">
          <mxGeometry x="575" y="419.31" width="30" height="20" as="geometry" />
        </mxCell>
      </root>
    </mxGraphModel>
  </diagram>
  <diagram id="yq9ThTIYmJ8oE_fTDe8D" name="AvalonMM_to_SSRAM: RTL">
    <mxGraphModel dx="2165" dy="688" grid="1" gridSize="10" guides="1" tooltips="1" connect="1" arrows="1" fold="1" page="1" pageScale="1" pageWidth="850" pageHeight="1100" math="0" shadow="0">
      <root>
        <mxCell id="0" />
        <mxCell id="1" parent="0" />
        <mxCell id="Cc1m1OQpfrByYmy1fPa8-23" style="edgeStyle=orthogonalEdgeStyle;rounded=0;orthogonalLoop=1;jettySize=auto;html=1;entryX=0.5;entryY=0;entryDx=0;entryDy=0;" parent="1" target="n1KpULwYp-mKjvu7RaX5-42" edge="1">
          <mxGeometry relative="1" as="geometry">
            <mxPoint x="240" y="1580" as="targetPoint" />
            <Array as="points" />
            <mxPoint x="740" y="1580" as="sourcePoint" />
          </mxGeometry>
        </mxCell>
        <mxCell id="Cc1m1OQpfrByYmy1fPa8-1" value="&lt;font style=&quot;font-size: 15px;&quot;&gt;avs_s0_&lt;font style=&quot;font-size: 15px;&quot;&gt;address&lt;/font&gt;&lt;/font&gt;" style="text;html=1;align=right;verticalAlign=middle;resizable=0;points=[];autosize=1;strokeColor=none;fillColor=none;" parent="1" vertex="1">
          <mxGeometry x="-312.5" y="1146.06" width="130" height="30" as="geometry" />
        </mxCell>
        <mxCell id="Cc1m1OQpfrByYmy1fPa8-2" value="avs_s0_readdata" style="text;html=1;align=right;verticalAlign=middle;resizable=0;points=[];autosize=1;strokeColor=none;fillColor=none;fontSize=15;" parent="1" vertex="1">
          <mxGeometry x="-320" y="1565" width="140" height="30" as="geometry" />
        </mxCell>
        <mxCell id="Cc1m1OQpfrByYmy1fPa8-3" value="avs_s0_read" style="text;html=1;align=right;verticalAlign=middle;resizable=0;points=[];autosize=1;strokeColor=none;fillColor=none;fontSize=15;" parent="1" vertex="1">
          <mxGeometry x="-292.5" y="1266.06" width="110" height="30" as="geometry" />
        </mxCell>
        <mxCell id="Cc1m1OQpfrByYmy1fPa8-4" value="avs_s0_writedata" style="text;html=1;align=right;verticalAlign=middle;resizable=0;points=[];autosize=1;strokeColor=none;fillColor=none;fontSize=15;" parent="1" vertex="1">
          <mxGeometry x="-320" y="1206.06" width="140" height="30" as="geometry" />
        </mxCell>
        <mxCell id="Cc1m1OQpfrByYmy1fPa8-5" value="avs_s0_write" style="text;html=1;align=right;verticalAlign=middle;resizable=0;points=[];autosize=1;strokeColor=none;fillColor=none;fontSize=15;" parent="1" vertex="1">
          <mxGeometry x="-290" y="1326.06" width="110" height="30" as="geometry" />
        </mxCell>
        <mxCell id="Cc1m1OQpfrByYmy1fPa8-6" value="avs_s0_waitrequest" style="text;html=1;align=right;verticalAlign=middle;resizable=0;points=[];autosize=1;strokeColor=none;fillColor=none;fontSize=15;" parent="1" vertex="1">
          <mxGeometry x="-340" y="986.0600000000001" width="160" height="30" as="geometry" />
        </mxCell>
        <mxCell id="Cc1m1OQpfrByYmy1fPa8-10" value="" style="endArrow=classic;html=1;rounded=0;fontSize=15;" parent="1" edge="1">
          <mxGeometry width="50" height="50" relative="1" as="geometry">
            <mxPoint x="80" y="1000.1" as="sourcePoint" />
            <mxPoint x="-160" y="999.8100000000001" as="targetPoint" />
            <Array as="points" />
          </mxGeometry>
        </mxCell>
        <mxCell id="Cc1m1OQpfrByYmy1fPa8-19" value="&lt;font style=&quot;font-size: 12px;&quot;&gt;31 downto 0&lt;/font&gt;" style="text;html=1;align=center;verticalAlign=middle;resizable=0;points=[];autosize=1;strokeColor=none;fillColor=none;fontSize=15;" parent="1" vertex="1">
          <mxGeometry x="-149.5" y="1136.06" width="90" height="30" as="geometry" />
        </mxCell>
        <mxCell id="Cc1m1OQpfrByYmy1fPa8-21" value="&lt;font style=&quot;font-size: 12px;&quot;&gt;47 downto 32&lt;/font&gt;" style="text;html=1;align=center;verticalAlign=middle;resizable=0;points=[];autosize=1;strokeColor=none;fillColor=none;fontSize=15;" parent="1" vertex="1">
          <mxGeometry x="-154.5" y="1196.06" width="100" height="30" as="geometry" />
        </mxCell>
        <mxCell id="Cc1m1OQpfrByYmy1fPa8-22" value="" style="endArrow=classic;html=1;rounded=0;fontSize=15;" parent="1" edge="1">
          <mxGeometry width="50" height="50" relative="1" as="geometry">
            <mxPoint x="-160" y="1161.06" as="sourcePoint" />
            <mxPoint x="-40" y="1101.06" as="targetPoint" />
            <Array as="points">
              <mxPoint x="-40" y="1161.06" />
            </Array>
          </mxGeometry>
        </mxCell>
        <mxCell id="_kESWd5d2GorcauQmHoQ-1" value="&lt;font style=&quot;font-size: 15px;&quot;&gt;readdatavalid&lt;/font&gt;" style="text;html=1;align=left;verticalAlign=middle;resizable=0;points=[];autosize=1;strokeColor=none;fillColor=none;rotation=-90;" parent="1" vertex="1">
          <mxGeometry x="-95" y="751.0600000000001" width="110" height="30" as="geometry" />
        </mxCell>
        <mxCell id="_kESWd5d2GorcauQmHoQ-2" value="" style="endArrow=classic;html=1;rounded=0;fontSize=15;" parent="1" edge="1">
          <mxGeometry width="50" height="50" relative="1" as="geometry">
            <mxPoint x="-40.52999999999997" y="920.0600000000001" as="sourcePoint" />
            <mxPoint x="-160" y="920.0600000000001" as="targetPoint" />
            <Array as="points">
              <mxPoint x="-40.52999999999997" y="920.0600000000001" />
            </Array>
          </mxGeometry>
        </mxCell>
        <mxCell id="_kESWd5d2GorcauQmHoQ-3" value="&lt;div align=&quot;right&quot;&gt;&lt;font style=&quot;font-size: 15px;&quot;&gt;avs_s0_readdatavalid&lt;/font&gt;&lt;/div&gt;" style="text;html=1;align=right;verticalAlign=middle;resizable=0;points=[];autosize=1;strokeColor=none;fillColor=none;" parent="1" vertex="1">
          <mxGeometry x="-350" y="906.0600000000001" width="170" height="30" as="geometry" />
        </mxCell>
        <mxCell id="y7VvcJH2NKGTp47G-ojt-12" value="&lt;font style=&quot;font-size: 15px;&quot;&gt;ssram_&lt;/font&gt;&lt;font style=&quot;font-size: 15px;&quot;&gt;&lt;font style=&quot;font-size: 15px;&quot;&gt;address&lt;/font&gt;&lt;/font&gt;" style="text;html=1;align=left;verticalAlign=middle;resizable=0;points=[];autosize=1;strokeColor=none;fillColor=none;" parent="1" vertex="1">
          <mxGeometry x="760" y="1325.1799999999998" width="130" height="30" as="geometry" />
        </mxCell>
        <mxCell id="y7VvcJH2NKGTp47G-ojt-32" value="" style="endArrow=classic;html=1;rounded=0;strokeColor=#00FF00;endFill=1;" parent="1" edge="1">
          <mxGeometry width="50" height="50" relative="1" as="geometry">
            <mxPoint x="-40" y="840" as="sourcePoint" />
            <mxPoint x="-40" y="920.35" as="targetPoint" />
          </mxGeometry>
        </mxCell>
        <mxCell id="y7VvcJH2NKGTp47G-ojt-39" value="&lt;font style=&quot;font-size: 15px;&quot;&gt;ssram_&lt;/font&gt;&lt;font style=&quot;font-size: 15px;&quot;&gt;&lt;font style=&quot;font-size: 15px;&quot;&gt;out&lt;/font&gt;&lt;/font&gt;" style="text;html=1;align=left;verticalAlign=middle;resizable=0;points=[];autosize=1;strokeColor=none;fillColor=none;" parent="1" vertex="1">
          <mxGeometry x="760" y="1565.1799999999998" width="90" height="30" as="geometry" />
        </mxCell>
        <mxCell id="y7VvcJH2NKGTp47G-ojt-40" value="&lt;font style=&quot;font-size: 15px;&quot;&gt;ssram_&lt;/font&gt;&lt;font style=&quot;font-size: 15px;&quot;&gt;in&lt;/font&gt;" style="text;html=1;align=left;verticalAlign=middle;resizable=0;points=[];autosize=1;strokeColor=none;fillColor=none;" parent="1" vertex="1">
          <mxGeometry x="760" y="1385.1799999999998" width="80" height="30" as="geometry" />
        </mxCell>
        <mxCell id="2YYxV-yyyqJco4z2SNmI-1" value="&lt;font style=&quot;font-size: 15px;&quot;&gt;ssram_&lt;/font&gt;&lt;font style=&quot;font-size: 15px;&quot;&gt;&lt;font style=&quot;font-size: 15px;&quot;&gt;validout&lt;/font&gt;&lt;/font&gt;" style="text;html=1;align=left;verticalAlign=middle;resizable=0;points=[];autosize=1;strokeColor=none;fillColor=none;" parent="1" vertex="1">
          <mxGeometry x="758" y="1624.9999999999998" width="120" height="30" as="geometry" />
        </mxCell>
        <mxCell id="2YYxV-yyyqJco4z2SNmI-2" value="&lt;font style=&quot;font-size: 15px;&quot;&gt;ssram_&lt;/font&gt;&lt;font style=&quot;font-size: 15px;&quot;&gt;WE&lt;/font&gt;" style="text;html=1;align=left;verticalAlign=middle;resizable=0;points=[];autosize=1;strokeColor=none;fillColor=none;rotation=0;" parent="1" vertex="1">
          <mxGeometry x="760" y="1505.1799999999998" width="100" height="30" as="geometry" />
        </mxCell>
        <mxCell id="2YYxV-yyyqJco4z2SNmI-3" value="&lt;font style=&quot;font-size: 15px;&quot;&gt;ssram_&lt;/font&gt;&lt;font style=&quot;font-size: 15px;&quot;&gt;OE&lt;/font&gt;" style="text;html=1;align=left;verticalAlign=middle;resizable=0;points=[];autosize=1;strokeColor=none;fillColor=none;rotation=0;" parent="1" vertex="1">
          <mxGeometry x="760" y="1445.1799999999998" width="90" height="30" as="geometry" />
        </mxCell>
        <mxCell id="n1KpULwYp-mKjvu7RaX5-25" style="edgeStyle=orthogonalEdgeStyle;rounded=0;orthogonalLoop=1;jettySize=auto;html=1;strokeWidth=1;exitX=0.5;exitY=0;exitDx=0;exitDy=0;entryX=0.5;entryY=1;entryDx=0;entryDy=0;" parent="1" source="n1KpULwYp-mKjvu7RaX5-48" target="aS_knNE3I7lOjsBgXEY--1" edge="1">
          <mxGeometry relative="1" as="geometry">
            <mxPoint x="320" y="1101" as="targetPoint" />
            <mxPoint x="240" y="1057.71" as="sourcePoint" />
            <Array as="points">
              <mxPoint x="200" y="1100" />
              <mxPoint x="240" y="1100" />
            </Array>
          </mxGeometry>
        </mxCell>
        <mxCell id="n1KpULwYp-mKjvu7RaX5-29" value="" style="endArrow=classic;html=1;rounded=0;fontSize=15;" parent="1" edge="1">
          <mxGeometry width="50" height="50" relative="1" as="geometry">
            <mxPoint x="-160" y="1221.06" as="sourcePoint" />
            <mxPoint y="1101.06" as="targetPoint" />
            <Array as="points">
              <mxPoint y="1221.06" />
            </Array>
          </mxGeometry>
        </mxCell>
        <mxCell id="n1KpULwYp-mKjvu7RaX5-30" value="" style="endArrow=classic;html=1;rounded=0;fontSize=15;" parent="1" edge="1">
          <mxGeometry width="50" height="50" relative="1" as="geometry">
            <mxPoint x="-160" y="1281.06" as="sourcePoint" />
            <mxPoint x="40" y="1101.06" as="targetPoint" />
            <Array as="points">
              <mxPoint x="40" y="1281.06" />
            </Array>
          </mxGeometry>
        </mxCell>
        <mxCell id="n1KpULwYp-mKjvu7RaX5-31" value="" style="endArrow=classic;html=1;rounded=0;fontSize=15;" parent="1" edge="1">
          <mxGeometry width="50" height="50" relative="1" as="geometry">
            <mxPoint x="-160" y="1341.06" as="sourcePoint" />
            <mxPoint x="80" y="1101.06" as="targetPoint" />
            <Array as="points">
              <mxPoint x="80" y="1341.06" />
            </Array>
          </mxGeometry>
        </mxCell>
        <mxCell id="n1KpULwYp-mKjvu7RaX5-32" value="48 downto 48" style="text;html=1;align=center;verticalAlign=middle;resizable=0;points=[];autosize=1;strokeColor=none;fillColor=none;" parent="1" vertex="1">
          <mxGeometry x="-154.5" y="1251.06" width="100" height="30" as="geometry" />
        </mxCell>
        <mxCell id="n1KpULwYp-mKjvu7RaX5-34" value="49 downto 49" style="text;html=1;align=center;verticalAlign=middle;resizable=0;points=[];autosize=1;strokeColor=none;fillColor=none;" parent="1" vertex="1">
          <mxGeometry x="-154.5" y="1311.06" width="100" height="30" as="geometry" />
        </mxCell>
        <mxCell id="n1KpULwYp-mKjvu7RaX5-44" style="edgeStyle=orthogonalEdgeStyle;rounded=0;orthogonalLoop=1;jettySize=auto;html=1;exitX=0.5;exitY=1;exitDx=0;exitDy=0;" parent="1" source="n1KpULwYp-mKjvu7RaX5-42" edge="1">
          <mxGeometry relative="1" as="geometry">
            <mxPoint x="-160" y="1580" as="targetPoint" />
          </mxGeometry>
        </mxCell>
        <mxCell id="n1KpULwYp-mKjvu7RaX5-135" style="edgeStyle=orthogonalEdgeStyle;rounded=0;orthogonalLoop=1;jettySize=auto;html=1;entryX=0;entryY=0.5;entryDx=0;entryDy=0;strokeColor=#00FF00;" parent="1" target="n1KpULwYp-mKjvu7RaX5-42" edge="1">
          <mxGeometry relative="1" as="geometry">
            <mxPoint x="240" y="840" as="sourcePoint" />
          </mxGeometry>
        </mxCell>
        <mxCell id="n1KpULwYp-mKjvu7RaX5-42" value="READDATA" style="rounded=0;whiteSpace=wrap;html=1;direction=south;horizontal=0;" parent="1" vertex="1">
          <mxGeometry x="220" y="1520" width="40" height="120" as="geometry" />
        </mxCell>
        <mxCell id="n1KpULwYp-mKjvu7RaX5-43" value="" style="triangle;whiteSpace=wrap;html=1;direction=east;" parent="1" vertex="1">
          <mxGeometry x="220" y="1630" width="10" height="10" as="geometry" />
        </mxCell>
        <mxCell id="n1KpULwYp-mKjvu7RaX5-46" value="op_req" style="text;html=1;align=left;verticalAlign=middle;resizable=0;points=[];autosize=1;strokeColor=none;fillColor=none;fontSize=15;rotation=90;" parent="1" vertex="1">
          <mxGeometry x="-16.999999999999993" y="1799.82" width="70" height="30" as="geometry" />
        </mxCell>
        <mxCell id="n1KpULwYp-mKjvu7RaX5-50" style="edgeStyle=orthogonalEdgeStyle;rounded=0;orthogonalLoop=1;jettySize=auto;html=1;entryX=0.5;entryY=1;entryDx=0;entryDy=0;" parent="1" target="n1KpULwYp-mKjvu7RaX5-48" edge="1">
          <mxGeometry relative="1" as="geometry">
            <mxPoint x="-40" y="1101.06" as="sourcePoint" />
          </mxGeometry>
        </mxCell>
        <mxCell id="n1KpULwYp-mKjvu7RaX5-93" style="edgeStyle=orthogonalEdgeStyle;rounded=0;orthogonalLoop=1;jettySize=auto;html=1;entryX=0;entryY=0.5;entryDx=0;entryDy=0;strokeColor=#00FF00;" parent="1" target="n1KpULwYp-mKjvu7RaX5-48" edge="1">
          <mxGeometry relative="1" as="geometry">
            <mxPoint x="180" y="840" as="sourcePoint" />
          </mxGeometry>
        </mxCell>
        <mxCell id="n1KpULwYp-mKjvu7RaX5-48" value="COMMAND" style="rounded=0;whiteSpace=wrap;html=1;direction=south;horizontal=0;" parent="1" vertex="1">
          <mxGeometry x="160" y="1041.06" width="40" height="120" as="geometry" />
        </mxCell>
        <mxCell id="n1KpULwYp-mKjvu7RaX5-49" value="" style="triangle;whiteSpace=wrap;html=1;direction=east;" parent="1" vertex="1">
          <mxGeometry x="160" y="1151.06" width="10" height="10" as="geometry" />
        </mxCell>
        <mxCell id="n1KpULwYp-mKjvu7RaX5-107" style="edgeStyle=orthogonalEdgeStyle;rounded=0;orthogonalLoop=1;jettySize=auto;html=1;strokeColor=#00FF00;entryX=0.25;entryY=1;entryDx=0;entryDy=0;" parent="1" target="aS_knNE3I7lOjsBgXEY--1" edge="1">
          <mxGeometry relative="1" as="geometry">
            <mxPoint x="320" y="840" as="sourcePoint" />
            <Array as="points">
              <mxPoint x="320" y="1030.06" />
            </Array>
            <mxPoint x="770" y="919.06" as="targetPoint" />
          </mxGeometry>
        </mxCell>
        <mxCell id="n1KpULwYp-mKjvu7RaX5-114" style="edgeStyle=orthogonalEdgeStyle;rounded=0;orthogonalLoop=1;jettySize=auto;html=1;endArrow=none;endFill=0;" parent="1" edge="1">
          <mxGeometry relative="1" as="geometry">
            <mxPoint x="480" y="1520" as="targetPoint" />
            <mxPoint x="480" y="1240" as="sourcePoint" />
          </mxGeometry>
        </mxCell>
        <mxCell id="n1KpULwYp-mKjvu7RaX5-115" value="" style="endArrow=classic;html=1;rounded=0;endFill=1;" parent="1" edge="1">
          <mxGeometry width="50" height="50" relative="1" as="geometry">
            <mxPoint x="480" y="1460" as="sourcePoint" />
            <mxPoint x="741" y="1460.12" as="targetPoint" />
          </mxGeometry>
        </mxCell>
        <mxCell id="n1KpULwYp-mKjvu7RaX5-116" value="" style="endArrow=classic;html=1;rounded=0;endFill=1;" parent="1" edge="1">
          <mxGeometry width="50" height="50" relative="1" as="geometry">
            <mxPoint x="480" y="1520" as="sourcePoint" />
            <mxPoint x="741" y="1520.12" as="targetPoint" />
          </mxGeometry>
        </mxCell>
        <mxCell id="n1KpULwYp-mKjvu7RaX5-117" value="" style="endArrow=classic;html=1;rounded=0;" parent="1" edge="1">
          <mxGeometry width="50" height="50" relative="1" as="geometry">
            <mxPoint x="480" y="1400" as="sourcePoint" />
            <mxPoint x="741" y="1400.12" as="targetPoint" />
          </mxGeometry>
        </mxCell>
        <mxCell id="n1KpULwYp-mKjvu7RaX5-118" value="" style="endArrow=classic;html=1;rounded=0;" parent="1" edge="1">
          <mxGeometry width="50" height="50" relative="1" as="geometry">
            <mxPoint x="480" y="1340" as="sourcePoint" />
            <mxPoint x="741" y="1340.12" as="targetPoint" />
          </mxGeometry>
        </mxCell>
        <mxCell id="n1KpULwYp-mKjvu7RaX5-119" value="" style="endArrow=none;html=1;rounded=0;" parent="1" edge="1">
          <mxGeometry width="50" height="50" relative="1" as="geometry">
            <mxPoint x="120" y="1111.06" as="sourcePoint" />
            <mxPoint x="130" y="1091.06" as="targetPoint" />
          </mxGeometry>
        </mxCell>
        <mxCell id="n1KpULwYp-mKjvu7RaX5-120" value="50" style="text;html=1;align=center;verticalAlign=middle;resizable=0;points=[];autosize=1;strokeColor=none;fillColor=none;" parent="1" vertex="1">
          <mxGeometry x="110" y="1066.06" width="40" height="30" as="geometry" />
        </mxCell>
        <mxCell id="n1KpULwYp-mKjvu7RaX5-121" value="" style="endArrow=none;html=1;rounded=0;" parent="1" edge="1">
          <mxGeometry width="50" height="50" relative="1" as="geometry">
            <mxPoint x="470" y="1284.06" as="sourcePoint" />
            <mxPoint x="490" y="1274.06" as="targetPoint" />
          </mxGeometry>
        </mxCell>
        <mxCell id="n1KpULwYp-mKjvu7RaX5-122" value="50" style="text;html=1;align=center;verticalAlign=middle;resizable=0;points=[];autosize=1;strokeColor=none;fillColor=none;" parent="1" vertex="1">
          <mxGeometry x="485" y="1259.06" width="40" height="30" as="geometry" />
        </mxCell>
        <mxCell id="n1KpULwYp-mKjvu7RaX5-123" value="&lt;font style=&quot;font-size: 12px;&quot;&gt;31 downto 0&lt;/font&gt;" style="text;html=1;align=center;verticalAlign=middle;resizable=0;points=[];autosize=1;strokeColor=none;fillColor=none;fontSize=15;" parent="1" vertex="1">
          <mxGeometry x="480" y="1311.06" width="90" height="30" as="geometry" />
        </mxCell>
        <mxCell id="n1KpULwYp-mKjvu7RaX5-124" value="&lt;font style=&quot;font-size: 12px;&quot;&gt;47 downto 32&lt;/font&gt;" style="text;html=1;align=center;verticalAlign=middle;resizable=0;points=[];autosize=1;strokeColor=none;fillColor=none;fontSize=15;" parent="1" vertex="1">
          <mxGeometry x="480" y="1370" width="100" height="30" as="geometry" />
        </mxCell>
        <mxCell id="n1KpULwYp-mKjvu7RaX5-125" value="48 downto 48" style="text;html=1;align=center;verticalAlign=middle;resizable=0;points=[];autosize=1;strokeColor=none;fillColor=none;" parent="1" vertex="1">
          <mxGeometry x="480" y="1429.5" width="100" height="30" as="geometry" />
        </mxCell>
        <mxCell id="n1KpULwYp-mKjvu7RaX5-126" value="49 downto 49" style="text;html=1;align=center;verticalAlign=middle;resizable=0;points=[];autosize=1;strokeColor=none;fillColor=none;" parent="1" vertex="1">
          <mxGeometry x="480" y="1489.5" width="100" height="30" as="geometry" />
        </mxCell>
        <mxCell id="n1KpULwYp-mKjvu7RaX5-134" value="" style="endArrow=classic;html=1;rounded=0;strokeColor=#00FF00;endFill=1;" parent="1" edge="1">
          <mxGeometry width="50" height="50" relative="1" as="geometry">
            <mxPoint x="80" y="840" as="sourcePoint" />
            <mxPoint x="80" y="1000.35" as="targetPoint" />
          </mxGeometry>
        </mxCell>
        <mxCell id="sbbwpJDfEVjCY6_EKjHU-1" value="waitrequest" style="text;html=1;align=left;verticalAlign=middle;resizable=0;points=[];autosize=1;strokeColor=none;fillColor=none;fontSize=15;rotation=-90;" parent="1" vertex="1">
          <mxGeometry x="30" y="753.0600000000001" width="100" height="30" as="geometry" />
        </mxCell>
        <mxCell id="sbbwpJDfEVjCY6_EKjHU-3" value="command_enable" style="text;html=1;align=left;verticalAlign=middle;resizable=0;points=[];autosize=1;strokeColor=none;fillColor=none;fontSize=15;rotation=-90;" parent="1" vertex="1">
          <mxGeometry x="110" y="736.0600000000001" width="140" height="30" as="geometry" />
        </mxCell>
        <mxCell id="sbbwpJDfEVjCY6_EKjHU-4" value="readdata_enable" style="text;html=1;align=left;verticalAlign=middle;resizable=0;points=[];autosize=1;strokeColor=none;fillColor=none;fontSize=15;rotation=-90;" parent="1" vertex="1">
          <mxGeometry x="170" y="736.0600000000001" width="140" height="30" as="geometry" />
        </mxCell>
        <mxCell id="sbbwpJDfEVjCY6_EKjHU-15" value="fifo4_push" style="text;html=1;align=left;verticalAlign=middle;resizable=0;points=[];autosize=1;strokeColor=none;fillColor=none;fontSize=15;rotation=-90;" parent="1" vertex="1">
          <mxGeometry x="276" y="759.06" width="90" height="30" as="geometry" />
        </mxCell>
        <mxCell id="sbbwpJDfEVjCY6_EKjHU-31" value="&lt;div&gt;mem_validout&lt;/div&gt;" style="text;html=1;align=left;verticalAlign=middle;resizable=0;points=[];autosize=1;strokeColor=none;fillColor=none;fontSize=15;rotation=90;" parent="1" vertex="1">
          <mxGeometry x="640" y="1824.82" width="120" height="30" as="geometry" />
        </mxCell>
        <mxCell id="xrUs9yKVIG8rAWldNfrB-2" style="edgeStyle=orthogonalEdgeStyle;rounded=0;orthogonalLoop=1;jettySize=auto;html=1;exitX=0;exitY=0.25;exitDx=0;exitDy=0;exitPerimeter=0;endArrow=none;endFill=0;" parent="1" source="W1AtAIGkyaUe-ApC5ieG-1" edge="1">
          <mxGeometry relative="1" as="geometry">
            <mxPoint x="39.99" y="1341.06" as="targetPoint" />
            <Array as="points">
              <mxPoint x="29.990000000000002" y="1441.06" />
              <mxPoint x="39.99" y="1441.06" />
            </Array>
            <mxPoint x="29.99500000000011" y="1447.725" as="sourcePoint" />
          </mxGeometry>
        </mxCell>
        <mxCell id="xrUs9yKVIG8rAWldNfrB-3" style="edgeStyle=orthogonalEdgeStyle;rounded=0;orthogonalLoop=1;jettySize=auto;html=1;exitX=0;exitY=0.75;exitDx=0;exitDy=0;exitPerimeter=0;endArrow=none;endFill=0;" parent="1" source="W1AtAIGkyaUe-ApC5ieG-1" edge="1">
          <mxGeometry relative="1" as="geometry">
            <mxPoint x="-0.009999999999999787" y="1281.06" as="targetPoint" />
            <Array as="points">
              <mxPoint x="9.99" y="1441.06" />
              <mxPoint x="-0.009999999999999787" y="1441.06" />
            </Array>
            <mxPoint x="9.99500000000011" y="1447.725" as="sourcePoint" />
          </mxGeometry>
        </mxCell>
        <mxCell id="xrUs9yKVIG8rAWldNfrB-4" style="edgeStyle=orthogonalEdgeStyle;rounded=0;orthogonalLoop=1;jettySize=auto;html=1;exitX=1;exitY=0.5;exitDx=0;exitDy=0;exitPerimeter=0;strokeColor=#FF0000;" parent="1" source="W1AtAIGkyaUe-ApC5ieG-1" edge="1">
          <mxGeometry relative="1" as="geometry">
            <mxPoint x="20" y="1760" as="targetPoint" />
            <mxPoint x="19.99500000000011" y="1033.335" as="sourcePoint" />
          </mxGeometry>
        </mxCell>
        <mxCell id="iZLbP2m2VilA62fwI07P-1" value="&lt;font style=&quot;font-size: 15px;&quot;&gt;ssram_&lt;/font&gt;&lt;font style=&quot;font-size: 15px;&quot;&gt;busy&lt;/font&gt;" style="text;html=1;align=left;verticalAlign=middle;resizable=0;points=[];autosize=1;strokeColor=none;fillColor=none;" parent="1" vertex="1">
          <mxGeometry x="750" y="1014.9499999999999" width="100" height="30" as="geometry" />
        </mxCell>
        <mxCell id="iZLbP2m2VilA62fwI07P-2" style="edgeStyle=orthogonalEdgeStyle;rounded=0;orthogonalLoop=1;jettySize=auto;html=1;strokeColor=#FF0000;" parent="1" edge="1">
          <mxGeometry relative="1" as="geometry">
            <mxPoint x="699.8" y="1759.9999999999998" as="targetPoint" />
            <mxPoint x="699.8" y="1639.9999999999998" as="sourcePoint" />
            <Array as="points">
              <mxPoint x="699.8" y="1639.9999999999998" />
            </Array>
          </mxGeometry>
        </mxCell>
        <mxCell id="LJ7WdXkX7okN0-XqNXuT-1" value="" style="endArrow=none;html=1;rounded=0;endFill=0;entryX=0;entryY=0.5;entryDx=0;entryDy=0;entryPerimeter=0;" parent="1" target="aS_knNE3I7lOjsBgXEY--10" edge="1">
          <mxGeometry width="50" height="50" relative="1" as="geometry">
            <mxPoint x="740" y="1030.12" as="sourcePoint" />
            <mxPoint x="562" y="1029.9499999999998" as="targetPoint" />
          </mxGeometry>
        </mxCell>
        <mxCell id="LJ7WdXkX7okN0-XqNXuT-2" value="" style="endArrow=classic;html=1;rounded=0;endFill=1;" parent="1" edge="1">
          <mxGeometry width="50" height="50" relative="1" as="geometry">
            <mxPoint x="740" y="1639.9999999999998" as="sourcePoint" />
            <mxPoint x="700" y="1640" as="targetPoint" />
          </mxGeometry>
        </mxCell>
        <mxCell id="LJ7WdXkX7okN0-XqNXuT-3" value="" style="endArrow=classic;html=1;rounded=0;endFill=1;exitX=1;exitY=0.5;exitDx=0;exitDy=0;exitPerimeter=0;" parent="1" source="JJZEfPCGID0rbEX0Mzrz-1" edge="1">
          <mxGeometry width="50" height="50" relative="1" as="geometry">
            <mxPoint x="720" y="1120" as="sourcePoint" />
            <mxPoint x="740" y="1100" as="targetPoint" />
          </mxGeometry>
        </mxCell>
        <mxCell id="LJ7WdXkX7okN0-XqNXuT-4" value="&lt;font style=&quot;font-size: 15px;&quot;&gt;ssram_&lt;font style=&quot;font-size: 15px;&quot;&gt;&lt;font style=&quot;font-size: 15px;&quot;&gt;CS&lt;/font&gt;&lt;/font&gt;&lt;/font&gt;" style="text;html=1;align=left;verticalAlign=middle;resizable=0;points=[];autosize=1;strokeColor=none;fillColor=none;" parent="1" vertex="1">
          <mxGeometry x="750" y="1085.1799999999998" width="90" height="30" as="geometry" />
        </mxCell>
        <mxCell id="W1AtAIGkyaUe-ApC5ieG-2" style="edgeStyle=orthogonalEdgeStyle;rounded=0;orthogonalLoop=1;jettySize=auto;html=1;exitX=0;exitY=0.75;exitDx=0;exitDy=0;exitPerimeter=0;" parent="1" source="W1AtAIGkyaUe-ApC5ieG-1" edge="1">
          <mxGeometry relative="1" as="geometry">
            <mxPoint x="10.323333333333258" y="1448.8933333333332" as="targetPoint" />
          </mxGeometry>
        </mxCell>
        <mxCell id="W1AtAIGkyaUe-ApC5ieG-1" value="" style="verticalLabelPosition=bottom;shadow=0;dashed=0;align=center;html=1;verticalAlign=top;shape=mxgraph.electrical.logic_gates.logic_gate;operation=or;direction=south;aspect=fixed;" parent="1" vertex="1">
          <mxGeometry x="0.6200000000000028" y="1448.77" width="38.75" height="64.58" as="geometry" />
        </mxCell>
        <mxCell id="aS_knNE3I7lOjsBgXEY--7" style="edgeStyle=orthogonalEdgeStyle;rounded=0;orthogonalLoop=1;jettySize=auto;html=1;exitX=0.75;exitY=1;exitDx=0;exitDy=0;strokeColor=#FF0000;" parent="1" source="aS_knNE3I7lOjsBgXEY--1" edge="1">
          <mxGeometry relative="1" as="geometry">
            <mxPoint x="320" y="1760" as="targetPoint" />
          </mxGeometry>
        </mxCell>
        <mxCell id="aS_knNE3I7lOjsBgXEY--1" value="" style="rounded=0;whiteSpace=wrap;html=1;direction=south;horizontal=1;" parent="1" vertex="1">
          <mxGeometry x="360" y="959.83" width="240" height="280" as="geometry" />
        </mxCell>
        <mxCell id="aS_knNE3I7lOjsBgXEY--2" value="&lt;font style=&quot;font-size: 15px;&quot;&gt;fifo4_push&lt;/font&gt;" style="text;html=1;align=left;verticalAlign=middle;resizable=0;points=[];autosize=1;strokeColor=none;fillColor=none;" parent="1" vertex="1">
          <mxGeometry x="366" y="1016.0599999999998" width="90" height="30" as="geometry" />
        </mxCell>
        <mxCell id="aS_knNE3I7lOjsBgXEY--3" value="&lt;font style=&quot;font-size: 15px;&quot;&gt;FIFO4&lt;/font&gt;" style="rounded=0;whiteSpace=wrap;html=1;" parent="1" vertex="1">
          <mxGeometry x="360" y="959.83" width="240" height="19.71" as="geometry" />
        </mxCell>
        <mxCell id="aS_knNE3I7lOjsBgXEY--4" value="&lt;font style=&quot;font-size: 15px;&quot;&gt;fifo4_in&lt;/font&gt;" style="text;html=1;align=left;verticalAlign=middle;resizable=0;points=[];autosize=1;strokeColor=none;fillColor=none;" parent="1" vertex="1">
          <mxGeometry x="366" y="1086.1799999999998" width="70" height="30" as="geometry" />
        </mxCell>
        <mxCell id="aS_knNE3I7lOjsBgXEY--5" value="&lt;font style=&quot;font-size: 15px;&quot;&gt;fifo4_out&lt;/font&gt;" style="text;html=1;align=center;verticalAlign=middle;resizable=0;points=[];autosize=1;strokeColor=none;fillColor=none;" parent="1" vertex="1">
          <mxGeometry x="440" y="1209.71" width="80" height="30" as="geometry" />
        </mxCell>
        <mxCell id="aS_knNE3I7lOjsBgXEY--6" value="&lt;font style=&quot;font-size: 15px;&quot;&gt;fifo4_almost_full&lt;/font&gt;" style="text;html=1;align=left;verticalAlign=middle;resizable=0;points=[];autosize=1;strokeColor=none;fillColor=none;" parent="1" vertex="1">
          <mxGeometry x="366" y="1156.06" width="130" height="30" as="geometry" />
        </mxCell>
        <mxCell id="aS_knNE3I7lOjsBgXEY--8" value="fifo4_almost_full" style="text;html=1;align=left;verticalAlign=middle;resizable=0;points=[];autosize=1;strokeColor=none;fillColor=none;fontSize=15;rotation=90;" parent="1" vertex="1">
          <mxGeometry x="254" y="1829.82" width="130" height="30" as="geometry" />
        </mxCell>
        <mxCell id="aS_knNE3I7lOjsBgXEY--11" style="edgeStyle=orthogonalEdgeStyle;rounded=0;orthogonalLoop=1;jettySize=auto;html=1;exitX=1;exitY=0.5;exitDx=0;exitDy=0;exitPerimeter=0;entryX=0.25;entryY=0;entryDx=0;entryDy=0;" parent="1" source="aS_knNE3I7lOjsBgXEY--10" target="aS_knNE3I7lOjsBgXEY--1" edge="1">
          <mxGeometry relative="1" as="geometry">
            <mxPoint x="560" y="1029.9499999999998" as="targetPoint" />
          </mxGeometry>
        </mxCell>
        <mxCell id="aS_knNE3I7lOjsBgXEY--10" value="" style="verticalLabelPosition=bottom;shadow=0;dashed=0;align=center;html=1;verticalAlign=top;shape=mxgraph.electrical.logic_gates.inverter_2;direction=west;aspect=fixed;" parent="1" vertex="1">
          <mxGeometry x="632.72" y="1013.2099999999999" width="56.57" height="33.94" as="geometry" />
        </mxCell>
        <mxCell id="aS_knNE3I7lOjsBgXEY--12" value="&lt;font style=&quot;font-size: 15px;&quot;&gt;fifo4_pop&lt;/font&gt;" style="text;html=1;align=right;verticalAlign=middle;resizable=0;points=[];autosize=1;strokeColor=none;fillColor=none;" parent="1" vertex="1">
          <mxGeometry x="505" y="1016.06" width="90" height="30" as="geometry" />
        </mxCell>
        <mxCell id="aS_knNE3I7lOjsBgXEY--13" value="&lt;font style=&quot;font-size: 15px;&quot;&gt;fifo4_empty&lt;/font&gt;" style="text;html=1;align=right;verticalAlign=middle;resizable=0;points=[];autosize=1;strokeColor=none;fillColor=none;" parent="1" vertex="1">
          <mxGeometry x="495" y="1087.06" width="100" height="30" as="geometry" />
        </mxCell>
        <mxCell id="iUQb1N6o7WGgHkKtxXrZ-3" style="edgeStyle=orthogonalEdgeStyle;rounded=0;orthogonalLoop=1;jettySize=auto;html=1;exitX=0;exitY=0.5;exitDx=0;exitDy=0;entryX=0;entryY=0.5;entryDx=0;entryDy=0;" parent="1" target="iUQb1N6o7WGgHkKtxXrZ-1" edge="1">
          <mxGeometry relative="1" as="geometry">
            <mxPoint x="20" y="1640" as="sourcePoint" />
            <Array as="points">
              <mxPoint x="100" y="1640" />
            </Array>
          </mxGeometry>
        </mxCell>
        <mxCell id="iUQb1N6o7WGgHkKtxXrZ-4" style="edgeStyle=orthogonalEdgeStyle;rounded=0;orthogonalLoop=1;jettySize=auto;html=1;exitX=1;exitY=0.5;exitDx=0;exitDy=0;strokeColor=#FF0000;" parent="1" source="iUQb1N6o7WGgHkKtxXrZ-1" edge="1">
          <mxGeometry relative="1" as="geometry">
            <mxPoint x="99.66666666666652" y="1760" as="targetPoint" />
          </mxGeometry>
        </mxCell>
        <mxCell id="iUQb1N6o7WGgHkKtxXrZ-1" value="POR" style="rounded=0;whiteSpace=wrap;html=1;direction=south;horizontal=1;" parent="1" vertex="1">
          <mxGeometry x="80" y="1680" width="40" height="40" as="geometry" />
        </mxCell>
        <mxCell id="iUQb1N6o7WGgHkKtxXrZ-2" value="" style="triangle;whiteSpace=wrap;html=1;direction=east;" parent="1" vertex="1">
          <mxGeometry x="80" y="1710" width="10" height="10" as="geometry" />
        </mxCell>
        <mxCell id="iUQb1N6o7WGgHkKtxXrZ-5" value="previous_op_req" style="text;html=1;align=left;verticalAlign=middle;resizable=0;points=[];autosize=1;strokeColor=none;fillColor=none;fontSize=15;rotation=90;" parent="1" vertex="1">
          <mxGeometry x="35.00000000000001" y="1829.82" width="130" height="30" as="geometry" />
        </mxCell>
        <mxCell id="iUQb1N6o7WGgHkKtxXrZ-6" value="" style="triangle;whiteSpace=wrap;html=1;direction=east;" parent="1" vertex="1">
          <mxGeometry x="360" y="1229.83" width="10" height="10" as="geometry" />
        </mxCell>
        <mxCell id="t4zxegnHiS7n4P0RUvhL-3" value="&lt;font style=&quot;font-size: 15px;&quot;&gt;fifo4_full&lt;/font&gt;" style="text;html=1;align=right;verticalAlign=middle;resizable=0;points=[];autosize=1;strokeColor=none;fillColor=none;" parent="1" vertex="1">
          <mxGeometry x="515" y="1156.06" width="80" height="30" as="geometry" />
        </mxCell>
        <mxCell id="t4zxegnHiS7n4P0RUvhL-4" style="edgeStyle=orthogonalEdgeStyle;rounded=0;orthogonalLoop=1;jettySize=auto;html=1;exitX=0.75;exitY=1;exitDx=0;exitDy=0;strokeColor=#FF0000;" parent="1" edge="1">
          <mxGeometry relative="1" as="geometry">
            <mxPoint x="640" y="1761.06" as="targetPoint" />
            <mxPoint x="600" y="1171.06" as="sourcePoint" />
          </mxGeometry>
        </mxCell>
        <mxCell id="t4zxegnHiS7n4P0RUvhL-5" value="fifo4_full" style="text;html=1;align=left;verticalAlign=middle;resizable=0;points=[];autosize=1;strokeColor=none;fillColor=none;fontSize=15;rotation=90;" parent="1" vertex="1">
          <mxGeometry x="600" y="1804.82" width="80" height="30" as="geometry" />
        </mxCell>
        <mxCell id="JJZEfPCGID0rbEX0Mzrz-1" value="" style="verticalLabelPosition=bottom;shadow=0;dashed=0;align=center;html=1;verticalAlign=top;shape=mxgraph.electrical.logic_gates.inverter_2;direction=east;aspect=fixed;" vertex="1" parent="1">
          <mxGeometry x="632.72" y="1083.12" width="56.57" height="33.94" as="geometry" />
        </mxCell>
        <mxCell id="JJZEfPCGID0rbEX0Mzrz-3" value="" style="endArrow=none;html=1;rounded=0;exitX=0;exitY=0.5;exitDx=0;exitDy=0;exitPerimeter=0;" edge="1" parent="1" source="JJZEfPCGID0rbEX0Mzrz-1">
          <mxGeometry width="50" height="50" relative="1" as="geometry">
            <mxPoint x="630" y="1110" as="sourcePoint" />
            <mxPoint x="600" y="1100" as="targetPoint" />
          </mxGeometry>
        </mxCell>
      </root>
    </mxGraphModel>
  </diagram>
  <diagram name="AvalonMM_to_SSRAM: FSM" id="7cOUtxpOADkt3iQJw6D3">
    <mxGraphModel dx="3480" dy="1377" grid="1" gridSize="10" guides="1" tooltips="1" connect="1" arrows="1" fold="1" page="1" pageScale="1" pageWidth="850" pageHeight="1100" math="0" shadow="0">
      <root>
        <mxCell id="gHbopcMJqhLfQALP6Ct7-0" />
        <mxCell id="gHbopcMJqhLfQALP6Ct7-1" parent="gHbopcMJqhLfQALP6Ct7-0" />
        <mxCell id="TOFqemQ2LBVTlinUqJPV-0" style="edgeStyle=orthogonalEdgeStyle;rounded=0;orthogonalLoop=1;jettySize=auto;html=1;exitX=0.5;exitY=1;exitDx=0;exitDy=0;entryX=0.5;entryY=0;entryDx=0;entryDy=0;" parent="gHbopcMJqhLfQALP6Ct7-1" source="TOFqemQ2LBVTlinUqJPV-1" target="TOFqemQ2LBVTlinUqJPV-6" edge="1">
          <mxGeometry relative="1" as="geometry">
            <mxPoint x="250" y="530" as="targetPoint" />
          </mxGeometry>
        </mxCell>
        <mxCell id="TOFqemQ2LBVTlinUqJPV-1" value="&lt;div&gt;waitrequest&lt;br&gt;&lt;/div&gt;&lt;div&gt;fifo4_clear_n&lt;br&gt;&lt;/div&gt;&lt;div&gt;por_clear_n&lt;br&gt;&lt;/div&gt;" style="rounded=0;whiteSpace=wrap;html=1;" parent="gHbopcMJqhLfQALP6Ct7-1" vertex="1">
          <mxGeometry x="190" y="360" width="120" height="50" as="geometry" />
        </mxCell>
        <mxCell id="TOFqemQ2LBVTlinUqJPV-2" style="edgeStyle=orthogonalEdgeStyle;rounded=0;orthogonalLoop=1;jettySize=auto;html=1;exitX=0.5;exitY=0;exitDx=0;exitDy=0;dashed=1;entryX=0.5;entryY=0;entryDx=0;entryDy=0;" parent="gHbopcMJqhLfQALP6Ct7-1" target="TOFqemQ2LBVTlinUqJPV-3" edge="1">
          <mxGeometry relative="1" as="geometry">
            <mxPoint x="300" y="310" as="targetPoint" />
            <mxPoint x="249.9655172413793" y="290" as="sourcePoint" />
            <Array as="points">
              <mxPoint x="250" y="320" />
              <mxPoint x="250" y="320" />
            </Array>
          </mxGeometry>
        </mxCell>
        <mxCell id="TOFqemQ2LBVTlinUqJPV-3" value="RESET" style="rounded=0;whiteSpace=wrap;html=1;" parent="gHbopcMJqhLfQALP6Ct7-1" vertex="1">
          <mxGeometry x="190" y="340" width="120" height="20" as="geometry" />
        </mxCell>
        <mxCell id="TOFqemQ2LBVTlinUqJPV-4" value="rst" style="text;html=1;align=center;verticalAlign=middle;resizable=0;points=[];autosize=1;strokeColor=none;fillColor=none;" parent="gHbopcMJqhLfQALP6Ct7-1" vertex="1">
          <mxGeometry x="230" y="260" width="40" height="30" as="geometry" />
        </mxCell>
        <mxCell id="5lTAiwlnq1v5YwnoY-Tq-1" style="edgeStyle=orthogonalEdgeStyle;rounded=0;orthogonalLoop=1;jettySize=auto;html=1;exitX=0.5;exitY=1;exitDx=0;exitDy=0;entryX=0.5;entryY=0;entryDx=0;entryDy=0;" parent="gHbopcMJqhLfQALP6Ct7-1" source="TOFqemQ2LBVTlinUqJPV-5" target="5lTAiwlnq1v5YwnoY-Tq-0" edge="1">
          <mxGeometry relative="1" as="geometry" />
        </mxCell>
        <mxCell id="TOFqemQ2LBVTlinUqJPV-5" value="&lt;div&gt;command_enable&lt;/div&gt;&lt;div&gt;por_enable&lt;br&gt;&lt;/div&gt;&lt;div&gt;readdata_enable&lt;br&gt;&lt;/div&gt;" style="rounded=0;whiteSpace=wrap;html=1;" parent="gHbopcMJqhLfQALP6Ct7-1" vertex="1">
          <mxGeometry x="190" y="520" width="120" height="50" as="geometry" />
        </mxCell>
        <mxCell id="TOFqemQ2LBVTlinUqJPV-6" value="IDLE" style="rounded=0;whiteSpace=wrap;html=1;" parent="gHbopcMJqhLfQALP6Ct7-1" vertex="1">
          <mxGeometry x="190" y="500" width="120" height="20" as="geometry" />
        </mxCell>
        <mxCell id="chEV1ipLW2FuLG0MZyKB-1" value="1" style="edgeStyle=orthogonalEdgeStyle;rounded=0;orthogonalLoop=1;jettySize=auto;html=1;exitX=0;exitY=0.5;exitDx=0;exitDy=0;entryX=1;entryY=0.5;entryDx=0;entryDy=0;" parent="gHbopcMJqhLfQALP6Ct7-1" source="5lTAiwlnq1v5YwnoY-Tq-0" target="chEV1ipLW2FuLG0MZyKB-0" edge="1">
          <mxGeometry relative="1" as="geometry" />
        </mxCell>
        <mxCell id="mH3VhtUJQ5IK_O_cGqcQ-0" value="0" style="edgeStyle=orthogonalEdgeStyle;rounded=0;orthogonalLoop=1;jettySize=auto;html=1;exitX=1;exitY=0.5;exitDx=0;exitDy=0;entryX=0;entryY=0.5;entryDx=0;entryDy=0;" parent="gHbopcMJqhLfQALP6Ct7-1" source="5lTAiwlnq1v5YwnoY-Tq-0" target="k44mnLu3KN8C34HpBLnE-5" edge="1">
          <mxGeometry relative="1" as="geometry" />
        </mxCell>
        <mxCell id="5lTAiwlnq1v5YwnoY-Tq-0" value="mem_validout" style="rhombus;whiteSpace=wrap;html=1;" parent="gHbopcMJqhLfQALP6Ct7-1" vertex="1">
          <mxGeometry x="200" y="840" width="100" height="80" as="geometry" />
        </mxCell>
        <mxCell id="dTlI5wrIrm0M_NYCQq1E-1" value="&lt;div&gt;command_enable&lt;/div&gt;&lt;div&gt;por_enable&lt;br&gt;&lt;/div&gt;&lt;div&gt;readdata_enable&lt;br&gt;&lt;/div&gt;&lt;div&gt;readdatavalid&lt;br&gt;&lt;/div&gt;" style="rounded=0;whiteSpace=wrap;html=1;" parent="gHbopcMJqhLfQALP6Ct7-1" vertex="1">
          <mxGeometry x="10" y="690" width="120" height="70" as="geometry" />
        </mxCell>
        <mxCell id="chEV1ipLW2FuLG0MZyKB-4" style="edgeStyle=orthogonalEdgeStyle;rounded=0;orthogonalLoop=1;jettySize=auto;html=1;exitX=0.5;exitY=0;exitDx=0;exitDy=0;" parent="gHbopcMJqhLfQALP6Ct7-1" source="dTlI5wrIrm0M_NYCQq1E-2" edge="1">
          <mxGeometry relative="1" as="geometry">
            <mxPoint x="250" y="610" as="targetPoint" />
            <Array as="points">
              <mxPoint x="70" y="610" />
            </Array>
          </mxGeometry>
        </mxCell>
        <mxCell id="dTlI5wrIrm0M_NYCQq1E-2" value="IDLE_VALID" style="rounded=0;whiteSpace=wrap;html=1;" parent="gHbopcMJqhLfQALP6Ct7-1" vertex="1">
          <mxGeometry x="10" y="670" width="120" height="20" as="geometry" />
        </mxCell>
        <mxCell id="chEV1ipLW2FuLG0MZyKB-3" value="0" style="edgeStyle=orthogonalEdgeStyle;rounded=0;orthogonalLoop=1;jettySize=auto;html=1;exitX=0.5;exitY=0;exitDx=0;exitDy=0;entryX=0.5;entryY=1;entryDx=0;entryDy=0;" parent="gHbopcMJqhLfQALP6Ct7-1" source="chEV1ipLW2FuLG0MZyKB-0" target="dTlI5wrIrm0M_NYCQq1E-1" edge="1">
          <mxGeometry relative="1" as="geometry">
            <mxPoint x="-70" y="880" as="targetPoint" />
          </mxGeometry>
        </mxCell>
        <mxCell id="kvlA3hQWvPA95vudkCkl-1" value="1" style="edgeStyle=orthogonalEdgeStyle;rounded=0;orthogonalLoop=1;jettySize=auto;html=1;exitX=0.5;exitY=1;exitDx=0;exitDy=0;entryX=0.5;entryY=0;entryDx=0;entryDy=0;" parent="gHbopcMJqhLfQALP6Ct7-1" source="chEV1ipLW2FuLG0MZyKB-0" target="kvlA3hQWvPA95vudkCkl-0" edge="1">
          <mxGeometry x="-0.6" relative="1" as="geometry">
            <mxPoint as="offset" />
          </mxGeometry>
        </mxCell>
        <mxCell id="chEV1ipLW2FuLG0MZyKB-0" value="op_req" style="rhombus;whiteSpace=wrap;html=1;" parent="gHbopcMJqhLfQALP6Ct7-1" vertex="1">
          <mxGeometry x="20" y="840" width="100" height="80" as="geometry" />
        </mxCell>
        <mxCell id="kvlA3hQWvPA95vudkCkl-3" value="0" style="edgeStyle=orthogonalEdgeStyle;rounded=0;orthogonalLoop=1;jettySize=auto;html=1;exitX=0;exitY=0.5;exitDx=0;exitDy=0;entryX=1;entryY=0.5;entryDx=0;entryDy=0;" parent="gHbopcMJqhLfQALP6Ct7-1" source="kvlA3hQWvPA95vudkCkl-0" target="kvlA3hQWvPA95vudkCkl-2" edge="1">
          <mxGeometry x="-0.1111" relative="1" as="geometry">
            <mxPoint as="offset" />
          </mxGeometry>
        </mxCell>
        <mxCell id="k44mnLu3KN8C34HpBLnE-1" value="1" style="edgeStyle=orthogonalEdgeStyle;rounded=0;orthogonalLoop=1;jettySize=auto;html=1;exitX=0.5;exitY=1;exitDx=0;exitDy=0;entryX=0.5;entryY=0;entryDx=0;entryDy=0;" parent="gHbopcMJqhLfQALP6Ct7-1" source="kvlA3hQWvPA95vudkCkl-0" target="k44mnLu3KN8C34HpBLnE-0" edge="1">
          <mxGeometry relative="1" as="geometry" />
        </mxCell>
        <mxCell id="kvlA3hQWvPA95vudkCkl-0" value="previous_op_req" style="rhombus;whiteSpace=wrap;html=1;" parent="gHbopcMJqhLfQALP6Ct7-1" vertex="1">
          <mxGeometry x="10" y="1120" width="120" height="80" as="geometry" />
        </mxCell>
        <mxCell id="pspYn3clw9Oj7FqdiPny-2" value="1" style="edgeStyle=orthogonalEdgeStyle;rounded=0;orthogonalLoop=1;jettySize=auto;html=1;exitX=0;exitY=0.5;exitDx=0;exitDy=0;entryX=1;entryY=0.5;entryDx=0;entryDy=0;" parent="gHbopcMJqhLfQALP6Ct7-1" source="kvlA3hQWvPA95vudkCkl-2" target="kvlA3hQWvPA95vudkCkl-4" edge="1">
          <mxGeometry x="-0.5" relative="1" as="geometry">
            <mxPoint as="offset" />
          </mxGeometry>
        </mxCell>
        <mxCell id="kt5a-0p5IZ3u5DeEQboj-9" value="0" style="edgeStyle=orthogonalEdgeStyle;rounded=0;orthogonalLoop=1;jettySize=auto;html=1;exitX=0.5;exitY=1;exitDx=0;exitDy=0;entryX=0.5;entryY=0;entryDx=0;entryDy=0;" parent="gHbopcMJqhLfQALP6Ct7-1" source="kvlA3hQWvPA95vudkCkl-2" target="kt5a-0p5IZ3u5DeEQboj-7" edge="1">
          <mxGeometry x="-0.8298" relative="1" as="geometry">
            <mxPoint x="-130" y="1480" as="targetPoint" />
            <Array as="points" />
            <mxPoint as="offset" />
          </mxGeometry>
        </mxCell>
        <mxCell id="kvlA3hQWvPA95vudkCkl-2" value="fifo4_full" style="rhombus;whiteSpace=wrap;html=1;" parent="gHbopcMJqhLfQALP6Ct7-1" vertex="1">
          <mxGeometry x="-180" y="1120" width="100" height="80" as="geometry" />
        </mxCell>
        <mxCell id="IAAMnW2y6-2EbQr6ppY7-1" style="edgeStyle=orthogonalEdgeStyle;rounded=0;orthogonalLoop=1;jettySize=auto;html=1;exitX=0;exitY=0.5;exitDx=0;exitDy=0;entryX=1;entryY=0.5;entryDx=0;entryDy=0;" parent="gHbopcMJqhLfQALP6Ct7-1" source="kvlA3hQWvPA95vudkCkl-4" target="IAAMnW2y6-2EbQr6ppY7-2" edge="1">
          <mxGeometry relative="1" as="geometry">
            <Array as="points" />
          </mxGeometry>
        </mxCell>
        <mxCell id="kvlA3hQWvPA95vudkCkl-4" value="&lt;div&gt;waitrequest&lt;/div&gt;&lt;div&gt;readdata_enable&lt;br&gt;&lt;/div&gt;&lt;div&gt;readdatavalid&lt;br&gt;&lt;/div&gt;" style="rounded=0;whiteSpace=wrap;html=1;" parent="gHbopcMJqhLfQALP6Ct7-1" vertex="1">
          <mxGeometry x="-420" y="1135" width="120" height="50" as="geometry" />
        </mxCell>
        <mxCell id="kvlA3hQWvPA95vudkCkl-5" value="WAITING_VALID" style="rounded=0;whiteSpace=wrap;html=1;" parent="gHbopcMJqhLfQALP6Ct7-1" vertex="1">
          <mxGeometry x="-420" y="1115" width="120" height="20" as="geometry" />
        </mxCell>
        <mxCell id="IAAMnW2y6-2EbQr6ppY7-4" value="1" style="edgeStyle=orthogonalEdgeStyle;rounded=0;orthogonalLoop=1;jettySize=auto;html=1;exitX=1;exitY=0.5;exitDx=0;exitDy=0;" parent="gHbopcMJqhLfQALP6Ct7-1" source="IAAMnW2y6-2EbQr6ppY7-0" edge="1">
          <mxGeometry x="-0.8333" relative="1" as="geometry">
            <mxPoint x="-240" y="1320" as="targetPoint" />
            <mxPoint as="offset" />
          </mxGeometry>
        </mxCell>
        <mxCell id="kt5a-0p5IZ3u5DeEQboj-4" value="0" style="edgeStyle=orthogonalEdgeStyle;rounded=0;orthogonalLoop=1;jettySize=auto;html=1;exitX=0.5;exitY=1;exitDx=0;exitDy=0;entryX=0.5;entryY=0;entryDx=0;entryDy=0;" parent="gHbopcMJqhLfQALP6Ct7-1" source="IAAMnW2y6-2EbQr6ppY7-0" target="kt5a-0p5IZ3u5DeEQboj-3" edge="1">
          <mxGeometry relative="1" as="geometry">
            <mxPoint x="-770" y="1320" as="targetPoint" />
          </mxGeometry>
        </mxCell>
        <mxCell id="IAAMnW2y6-2EbQr6ppY7-0" value="fifo4_full" style="rhombus;whiteSpace=wrap;html=1;" parent="gHbopcMJqhLfQALP6Ct7-1" vertex="1">
          <mxGeometry x="-710" y="1280" width="100" height="80" as="geometry" />
        </mxCell>
        <mxCell id="IAAMnW2y6-2EbQr6ppY7-3" value="1" style="edgeStyle=orthogonalEdgeStyle;rounded=0;orthogonalLoop=1;jettySize=auto;html=1;exitX=0.5;exitY=1;exitDx=0;exitDy=0;entryX=0.5;entryY=0;entryDx=0;entryDy=0;" parent="gHbopcMJqhLfQALP6Ct7-1" source="IAAMnW2y6-2EbQr6ppY7-2" target="IAAMnW2y6-2EbQr6ppY7-0" edge="1">
          <mxGeometry relative="1" as="geometry" />
        </mxCell>
        <mxCell id="IAAMnW2y6-2EbQr6ppY7-12" value="0" style="edgeStyle=orthogonalEdgeStyle;rounded=0;orthogonalLoop=1;jettySize=auto;html=1;exitX=0.5;exitY=0;exitDx=0;exitDy=0;entryX=0.5;entryY=1;entryDx=0;entryDy=0;" parent="gHbopcMJqhLfQALP6Ct7-1" source="IAAMnW2y6-2EbQr6ppY7-2" target="IAAMnW2y6-2EbQr6ppY7-11" edge="1">
          <mxGeometry x="-0.6" relative="1" as="geometry">
            <mxPoint as="offset" />
          </mxGeometry>
        </mxCell>
        <mxCell id="IAAMnW2y6-2EbQr6ppY7-2" value="mem_validout" style="rhombus;whiteSpace=wrap;html=1;" parent="gHbopcMJqhLfQALP6Ct7-1" vertex="1">
          <mxGeometry x="-710" y="1120" width="100" height="80" as="geometry" />
        </mxCell>
        <mxCell id="IAAMnW2y6-2EbQr6ppY7-14" style="edgeStyle=orthogonalEdgeStyle;rounded=0;orthogonalLoop=1;jettySize=auto;html=1;exitX=0;exitY=0.5;exitDx=0;exitDy=0;" parent="gHbopcMJqhLfQALP6Ct7-1" source="IAAMnW2y6-2EbQr6ppY7-5" edge="1">
          <mxGeometry relative="1" as="geometry">
            <mxPoint x="-490" y="1160" as="targetPoint" />
            <mxPoint x="-430" y="950" as="sourcePoint" />
            <Array as="points">
              <mxPoint x="-490" y="1040" />
            </Array>
          </mxGeometry>
        </mxCell>
        <mxCell id="IAAMnW2y6-2EbQr6ppY7-5" value="&lt;div&gt;waitrequest&lt;/div&gt;&lt;div&gt;readdata_enable&lt;br&gt;&lt;/div&gt;" style="rounded=0;whiteSpace=wrap;html=1;" parent="gHbopcMJqhLfQALP6Ct7-1" vertex="1">
          <mxGeometry x="-420" y="1020" width="120" height="40" as="geometry" />
        </mxCell>
        <mxCell id="IAAMnW2y6-2EbQr6ppY7-6" value="WAITING" style="rounded=0;whiteSpace=wrap;html=1;" parent="gHbopcMJqhLfQALP6Ct7-1" vertex="1">
          <mxGeometry x="-420" y="1000" width="120" height="20" as="geometry" />
        </mxCell>
        <mxCell id="IAAMnW2y6-2EbQr6ppY7-13" value="1" style="edgeStyle=orthogonalEdgeStyle;rounded=0;orthogonalLoop=1;jettySize=auto;html=1;exitX=1;exitY=0.5;exitDx=0;exitDy=0;" parent="gHbopcMJqhLfQALP6Ct7-1" source="IAAMnW2y6-2EbQr6ppY7-11" edge="1">
          <mxGeometry x="-0.8491" relative="1" as="geometry">
            <mxPoint x="-240" y="1040" as="targetPoint" />
            <mxPoint as="offset" />
          </mxGeometry>
        </mxCell>
        <mxCell id="kt5a-0p5IZ3u5DeEQboj-0" value="0" style="edgeStyle=orthogonalEdgeStyle;rounded=0;orthogonalLoop=1;jettySize=auto;html=1;exitX=0.5;exitY=0;exitDx=0;exitDy=0;entryX=0.5;entryY=1;entryDx=0;entryDy=0;" parent="gHbopcMJqhLfQALP6Ct7-1" source="IAAMnW2y6-2EbQr6ppY7-11" target="IAAMnW2y6-2EbQr6ppY7-15" edge="1">
          <mxGeometry relative="1" as="geometry">
            <mxPoint x="-760" y="880" as="targetPoint" />
          </mxGeometry>
        </mxCell>
        <mxCell id="IAAMnW2y6-2EbQr6ppY7-11" value="fifo4_full" style="rhombus;whiteSpace=wrap;html=1;" parent="gHbopcMJqhLfQALP6Ct7-1" vertex="1">
          <mxGeometry x="-710" y="840" width="100" height="80" as="geometry" />
        </mxCell>
        <mxCell id="IAAMnW2y6-2EbQr6ppY7-15" value="&lt;div&gt;command_enable&lt;/div&gt;&lt;div&gt;por_enable&lt;br&gt;&lt;/div&gt;&lt;div&gt;readdata_enable&lt;br&gt;&lt;/div&gt;&lt;div&gt;fifo4_push&lt;br&gt;&lt;/div&gt;" style="rounded=0;whiteSpace=wrap;html=1;" parent="gHbopcMJqhLfQALP6Ct7-1" vertex="1">
          <mxGeometry x="-720" y="690" width="120" height="70" as="geometry" />
        </mxCell>
        <mxCell id="kt5a-0p5IZ3u5DeEQboj-1" style="edgeStyle=orthogonalEdgeStyle;rounded=0;orthogonalLoop=1;jettySize=auto;html=1;exitX=0.5;exitY=0;exitDx=0;exitDy=0;" parent="gHbopcMJqhLfQALP6Ct7-1" source="IAAMnW2y6-2EbQr6ppY7-16" edge="1">
          <mxGeometry relative="1" as="geometry">
            <mxPoint x="70" y="610" as="targetPoint" />
            <Array as="points">
              <mxPoint x="-660" y="610" />
            </Array>
          </mxGeometry>
        </mxCell>
        <mxCell id="IAAMnW2y6-2EbQr6ppY7-16" value="PUSH_AFTERFULL" style="rounded=0;whiteSpace=wrap;html=1;" parent="gHbopcMJqhLfQALP6Ct7-1" vertex="1">
          <mxGeometry x="-720" y="670" width="120" height="20" as="geometry" />
        </mxCell>
        <mxCell id="k44mnLu3KN8C34HpBLnE-4" style="edgeStyle=orthogonalEdgeStyle;rounded=0;orthogonalLoop=1;jettySize=auto;html=1;exitX=0.5;exitY=1;exitDx=0;exitDy=0;" parent="gHbopcMJqhLfQALP6Ct7-1" source="kt5a-0p5IZ3u5DeEQboj-2" edge="1">
          <mxGeometry relative="1" as="geometry">
            <mxPoint x="-659.6470588235293" y="1601" as="targetPoint" />
          </mxGeometry>
        </mxCell>
        <mxCell id="kt5a-0p5IZ3u5DeEQboj-2" value="&lt;div&gt;command_enable&lt;/div&gt;&lt;div&gt;por_enable&lt;br&gt;&lt;/div&gt;&lt;div&gt;readdata_enable&lt;br&gt;&lt;/div&gt;&lt;div&gt;fifo4_push&lt;br&gt;&lt;/div&gt;&lt;div&gt;readdatavalid&lt;br&gt;&lt;/div&gt;" style="rounded=0;whiteSpace=wrap;html=1;" parent="gHbopcMJqhLfQALP6Ct7-1" vertex="1">
          <mxGeometry x="-740" y="1460" width="160" height="80" as="geometry" />
        </mxCell>
        <mxCell id="kt5a-0p5IZ3u5DeEQboj-3" value="PUSH_AFTERFULL_VALID" style="rounded=0;whiteSpace=wrap;html=1;" parent="gHbopcMJqhLfQALP6Ct7-1" vertex="1">
          <mxGeometry x="-740" y="1440" width="160" height="20" as="geometry" />
        </mxCell>
        <mxCell id="kt5a-0p5IZ3u5DeEQboj-11" style="edgeStyle=orthogonalEdgeStyle;rounded=0;orthogonalLoop=1;jettySize=auto;html=1;exitX=0.5;exitY=1;exitDx=0;exitDy=0;" parent="gHbopcMJqhLfQALP6Ct7-1" source="kt5a-0p5IZ3u5DeEQboj-6" edge="1">
          <mxGeometry relative="1" as="geometry">
            <mxPoint x="-660" y="610" as="targetPoint" />
            <Array as="points">
              <mxPoint x="-130" y="1600" />
              <mxPoint x="-800" y="1600" />
              <mxPoint x="-800" y="610" />
            </Array>
          </mxGeometry>
        </mxCell>
        <mxCell id="kt5a-0p5IZ3u5DeEQboj-6" value="&lt;div&gt;command_enable&lt;/div&gt;&lt;div&gt;por_enable&lt;br&gt;&lt;/div&gt;&lt;div&gt;readdata_enable&lt;br&gt;&lt;/div&gt;&lt;div&gt;fifo4_push&lt;br&gt;&lt;/div&gt;&lt;div&gt;readdatavalid&lt;br&gt;&lt;/div&gt;" style="rounded=0;whiteSpace=wrap;html=1;" parent="gHbopcMJqhLfQALP6Ct7-1" vertex="1">
          <mxGeometry x="-190" y="1460" width="120" height="80" as="geometry" />
        </mxCell>
        <mxCell id="kt5a-0p5IZ3u5DeEQboj-7" value="PUSH_VALID" style="rounded=0;whiteSpace=wrap;html=1;" parent="gHbopcMJqhLfQALP6Ct7-1" vertex="1">
          <mxGeometry x="-190" y="1440" width="120" height="20" as="geometry" />
        </mxCell>
        <mxCell id="k44mnLu3KN8C34HpBLnE-2" value="1" style="edgeStyle=orthogonalEdgeStyle;rounded=0;orthogonalLoop=1;jettySize=auto;html=1;exitX=0;exitY=0.5;exitDx=0;exitDy=0;" parent="gHbopcMJqhLfQALP6Ct7-1" source="k44mnLu3KN8C34HpBLnE-0" edge="1">
          <mxGeometry x="-0.8049" relative="1" as="geometry">
            <mxPoint x="-240" y="1160" as="targetPoint" />
            <mxPoint as="offset" />
          </mxGeometry>
        </mxCell>
        <mxCell id="k44mnLu3KN8C34HpBLnE-3" value="0" style="edgeStyle=orthogonalEdgeStyle;rounded=0;orthogonalLoop=1;jettySize=auto;html=1;exitX=0.5;exitY=1;exitDx=0;exitDy=0;" parent="gHbopcMJqhLfQALP6Ct7-1" source="k44mnLu3KN8C34HpBLnE-0" edge="1">
          <mxGeometry x="-0.7647" relative="1" as="geometry">
            <mxPoint x="-130" y="1400" as="targetPoint" />
            <Array as="points">
              <mxPoint x="70" y="1400" />
            </Array>
            <mxPoint as="offset" />
          </mxGeometry>
        </mxCell>
        <mxCell id="k44mnLu3KN8C34HpBLnE-0" value="fifo4_almost_full" style="rhombus;whiteSpace=wrap;html=1;" parent="gHbopcMJqhLfQALP6Ct7-1" vertex="1">
          <mxGeometry x="10" y="1280" width="120" height="80" as="geometry" />
        </mxCell>
        <mxCell id="mH3VhtUJQ5IK_O_cGqcQ-1" value="0" style="edgeStyle=orthogonalEdgeStyle;rounded=0;orthogonalLoop=1;jettySize=auto;html=1;exitX=0.5;exitY=0;exitDx=0;exitDy=0;" parent="gHbopcMJqhLfQALP6Ct7-1" source="k44mnLu3KN8C34HpBLnE-5" edge="1">
          <mxGeometry x="-0.8572" relative="1" as="geometry">
            <mxPoint x="250" y="450" as="targetPoint" />
            <Array as="points">
              <mxPoint x="420" y="450" />
            </Array>
            <mxPoint as="offset" />
          </mxGeometry>
        </mxCell>
        <mxCell id="mH3VhtUJQ5IK_O_cGqcQ-7" value="1" style="edgeStyle=orthogonalEdgeStyle;rounded=0;orthogonalLoop=1;jettySize=auto;html=1;exitX=1;exitY=0.5;exitDx=0;exitDy=0;entryX=0;entryY=0.5;entryDx=0;entryDy=0;" parent="gHbopcMJqhLfQALP6Ct7-1" source="k44mnLu3KN8C34HpBLnE-5" target="mH3VhtUJQ5IK_O_cGqcQ-2" edge="1">
          <mxGeometry relative="1" as="geometry" />
        </mxCell>
        <mxCell id="k44mnLu3KN8C34HpBLnE-5" value="op_req" style="rhombus;whiteSpace=wrap;html=1;" parent="gHbopcMJqhLfQALP6Ct7-1" vertex="1">
          <mxGeometry x="370" y="840" width="100" height="80" as="geometry" />
        </mxCell>
        <mxCell id="mH3VhtUJQ5IK_O_cGqcQ-8" value="0" style="edgeStyle=orthogonalEdgeStyle;rounded=0;orthogonalLoop=1;jettySize=auto;html=1;exitX=0.5;exitY=1;exitDx=0;exitDy=0;entryX=0.5;entryY=0;entryDx=0;entryDy=0;" parent="gHbopcMJqhLfQALP6Ct7-1" source="mH3VhtUJQ5IK_O_cGqcQ-2" target="mH3VhtUJQ5IK_O_cGqcQ-5" edge="1">
          <mxGeometry relative="1" as="geometry" />
        </mxCell>
        <mxCell id="E_kB2tADeyxWPAZdEd1G-1" value="1" style="edgeStyle=orthogonalEdgeStyle;rounded=0;orthogonalLoop=1;jettySize=auto;html=1;exitX=1;exitY=0.5;exitDx=0;exitDy=0;entryX=0.5;entryY=0;entryDx=0;entryDy=0;" parent="gHbopcMJqhLfQALP6Ct7-1" source="mH3VhtUJQ5IK_O_cGqcQ-2" target="E_kB2tADeyxWPAZdEd1G-0" edge="1">
          <mxGeometry x="-0.6" relative="1" as="geometry">
            <mxPoint as="offset" />
          </mxGeometry>
        </mxCell>
        <mxCell id="mH3VhtUJQ5IK_O_cGqcQ-2" value="previous_op_req" style="rhombus;whiteSpace=wrap;html=1;" parent="gHbopcMJqhLfQALP6Ct7-1" vertex="1">
          <mxGeometry x="550" y="840" width="120" height="80" as="geometry" />
        </mxCell>
        <mxCell id="mH3VhtUJQ5IK_O_cGqcQ-9" value="1" style="edgeStyle=orthogonalEdgeStyle;rounded=0;orthogonalLoop=1;jettySize=auto;html=1;exitX=0;exitY=0.5;exitDx=0;exitDy=0;entryX=1;entryY=0.5;entryDx=0;entryDy=0;" parent="gHbopcMJqhLfQALP6Ct7-1" source="mH3VhtUJQ5IK_O_cGqcQ-5" target="IAAMnW2y6-2EbQr6ppY7-5" edge="1">
          <mxGeometry x="-0.8837" relative="1" as="geometry">
            <mxPoint x="1" as="offset" />
          </mxGeometry>
        </mxCell>
        <mxCell id="mH3VhtUJQ5IK_O_cGqcQ-12" value="0" style="edgeStyle=orthogonalEdgeStyle;rounded=0;orthogonalLoop=1;jettySize=auto;html=1;exitX=0.5;exitY=1;exitDx=0;exitDy=0;entryX=0.5;entryY=0;entryDx=0;entryDy=0;" parent="gHbopcMJqhLfQALP6Ct7-1" source="mH3VhtUJQ5IK_O_cGqcQ-5" target="mH3VhtUJQ5IK_O_cGqcQ-11" edge="1">
          <mxGeometry x="-0.7778" relative="1" as="geometry">
            <mxPoint x="620" y="1440" as="targetPoint" />
            <mxPoint as="offset" />
          </mxGeometry>
        </mxCell>
        <mxCell id="mH3VhtUJQ5IK_O_cGqcQ-5" value="fifo4_full" style="rhombus;whiteSpace=wrap;html=1;" parent="gHbopcMJqhLfQALP6Ct7-1" vertex="1">
          <mxGeometry x="560" y="1000" width="100" height="80" as="geometry" />
        </mxCell>
        <mxCell id="mH3VhtUJQ5IK_O_cGqcQ-13" style="edgeStyle=orthogonalEdgeStyle;rounded=0;orthogonalLoop=1;jettySize=auto;html=1;exitX=0.5;exitY=1;exitDx=0;exitDy=0;" parent="gHbopcMJqhLfQALP6Ct7-1" source="mH3VhtUJQ5IK_O_cGqcQ-10" edge="1">
          <mxGeometry relative="1" as="geometry">
            <mxPoint x="-130" y="1600" as="targetPoint" />
            <Array as="points">
              <mxPoint x="610" y="1600" />
            </Array>
          </mxGeometry>
        </mxCell>
        <mxCell id="mH3VhtUJQ5IK_O_cGqcQ-10" value="&lt;div&gt;command_enable&lt;/div&gt;&lt;div&gt;por_enable&lt;br&gt;&lt;/div&gt;&lt;div&gt;readdata_enable&lt;br&gt;&lt;/div&gt;&lt;div&gt;fifo4_push&lt;br&gt;&lt;/div&gt;" style="rounded=0;whiteSpace=wrap;html=1;" parent="gHbopcMJqhLfQALP6Ct7-1" vertex="1">
          <mxGeometry x="550" y="1460" width="120" height="80" as="geometry" />
        </mxCell>
        <mxCell id="mH3VhtUJQ5IK_O_cGqcQ-11" value="PUSH" style="rounded=0;whiteSpace=wrap;html=1;" parent="gHbopcMJqhLfQALP6Ct7-1" vertex="1">
          <mxGeometry x="550" y="1440" width="120" height="20" as="geometry" />
        </mxCell>
        <mxCell id="E_kB2tADeyxWPAZdEd1G-2" value="0" style="edgeStyle=orthogonalEdgeStyle;rounded=0;orthogonalLoop=1;jettySize=auto;html=1;exitX=0.5;exitY=1;exitDx=0;exitDy=0;" parent="gHbopcMJqhLfQALP6Ct7-1" source="E_kB2tADeyxWPAZdEd1G-0" edge="1">
          <mxGeometry x="-0.8431" relative="1" as="geometry">
            <mxPoint x="610" y="1400" as="targetPoint" />
            <Array as="points">
              <mxPoint x="800" y="1400" />
            </Array>
            <mxPoint as="offset" />
          </mxGeometry>
        </mxCell>
        <mxCell id="E_kB2tADeyxWPAZdEd1G-3" value="1" style="edgeStyle=orthogonalEdgeStyle;rounded=0;orthogonalLoop=1;jettySize=auto;html=1;exitX=0;exitY=0.5;exitDx=0;exitDy=0;" parent="gHbopcMJqhLfQALP6Ct7-1" source="E_kB2tADeyxWPAZdEd1G-0" edge="1">
          <mxGeometry x="-0.8182" relative="1" as="geometry">
            <mxPoint x="420" y="1040" as="targetPoint" />
            <mxPoint as="offset" />
          </mxGeometry>
        </mxCell>
        <mxCell id="E_kB2tADeyxWPAZdEd1G-0" value="fifo4_almost_full" style="rhombus;whiteSpace=wrap;html=1;" parent="gHbopcMJqhLfQALP6Ct7-1" vertex="1">
          <mxGeometry x="740" y="1120" width="120" height="80" as="geometry" />
        </mxCell>
      </root>
    </mxGraphModel>
  </diagram>
</mxfile>
